<?xml version="1.0" encoding="UTF-8"?><svg id="Layer_1" xmlns="http://www.w3.org/2000/svg" viewBox="0 0 1080 1080"><defs><style>.cls-1{fill:#fff;}.cls-2{fill:#6b9b9b;}</style></defs><rect class="cls-1" x="-8" y="-8" width="1096" height="1096"/><g><path class="cls-2" d="M980.52,610.39c.91,1.96,2.27,.3,3.39,.55-1.03-1-2.25-.4-3.39-.55Z"/><path class="cls-2" d="M974.74,610.9c.39-.54,.96-.51,1.49-.59-.73-.74-1.63-.43-2.46-.5,.16,.38,.32,.75,.48,1.13,.16,.18,.32,.36,.48,.54,0-.19,0-.38,.01-.57Z"/><path class="cls-2" d="M197.63,544.08c.69-.45,.54-1.16,.46-1.85-.1-.13-.19-.27-.28-.4-.28-.91,.68-2.6-1.1-2.52-.94,.04-2,.16-2.43,1.36-.37,1.04-.44,2.15,.33,3.06,.91,1.07,1.94,1.07,3.03,.36Z"/><path class="cls-2" d="M988.14,577.96c-.91-1.16-1.85-1.25-2.8-1.3-.52,1.88-1.89,.78-2.87,1.07,1.81,1.02,3.61,.62,5.67,.23Z"/><path class="cls-2" d="M942.34,570.01c1.15-.14,2.17,.38,3.23,.75,.83,.29,1.73,.77,2.09-.73-.49-.87-1.31-.26-1.93-.56-.32-.01-.63-.03-.95-.04-.72,.68-2-1.63-2.44,.59Z"/><path class="cls-2" d="M957.32,571.69c-.31-.02-.62-.03-.93-.05-.62,.06-1.25,.12-2.34,.22,2.57,1.22,2.62,1.21,3.28-.17Z"/><path class="cls-2" d="M965.52,574.46h0c5,.91,10.01,1.82,15.01,2.73,.32-.06-.62-1.14,.42-.65,.38,.18,.77-.04,1.03-.45-1.21-1.19-2.65-.1-3.93-.5-3.93-1.22-7.96-1.8-11.99-2.3,0,0-.04,.05-.04,.05,.13,.12,.21,.21,.29,.3-.13-.07-.24-.15-.29-.3h-2.58c.56,.52,.86,.79,1.16,1.06,.31,.02,.62,.03,.93,.05Z"/><path class="cls-2" d="M975.53,614.82c-.77-.1-1.61,.19-2.24-.57-.32,.55-.65,1.11-.97,1.66,.83,.86,1.96,.54,2.91,.95,.67,.29,1.55,.19,1.64-.91,.08-.95-.7-1.05-1.34-1.13Z"/><path class="cls-2" d="M969.88,615.37c.32-.9,.71-1.88-.78-1.4-.57,.19-1.1,.57-1.64,.86,.6,1.42,1.57,.65,2.42,.54Z"/><path class="cls-2" d="M309.18,539.07s.01,0,.02,0c0,0,0,0,0,0h-.02Z"/><path class="cls-2" d="M236.49,535.68h2.58c-.84-.79-1.71-.48-2.58,0Z"/><path class="cls-2" d="M239.11,535.68h-.03s0,0,.01,.01h.02Z"/><path class="cls-2" d="M1012.91,609.83c-1.28,0-2.56-.02-3.84-.02,.06,0,.12-.06,.18-.19,.05-.12-.01-.23-.21-.34h0c-.83-.08-1.72,.25-2.42-.54,0,0,0,0,0,0-.16,0-.31-.02-.47-.03-.69,.14-1.51-.26-2.26,.7,1.62,.88,3.32-.09,4.67,.97,1.45,.39,2.99,.27,4.36,1.09,.16,0,.32,.01,.47,.02,2-.1,3.96,.12,5.81,1.08h0c2.08-.28,4.14,1.15,6.79,.11-4.55-1.99-8.99-1.47-13.09-2.85h0Z"/><path class="cls-2" d="M995.51,608.68h4.41c0-.22,.01-.44,.02-.66-1.62-.15-3.23-.3-4.85-.45-.45,.67,.37,.7,.43,1.12Z"/><path class="cls-2" d="M990.15,606.53c-.67-.12-1.41,.1-1.98-.51-.94-.23-1.88-.45-2.81-.68-1.11-.58-2.34,.14-3.45-.45-.14,.03-.27,.01-.41-.05-.87-.55-1.81-.18-2.72-.25-.15,.09-.3,.16-.46,.23-.2-.02-.39-.04-.59-.06h0c-.05-.14-.12-.28-.18-.41-.94-.02-1.87-.04-2.81-.06-1.29-.19-2.58-.38-3.87-.57-.11-.09-.24-.11-.37-.06,0,0,0,0,0,0-1.72-.92-3.57-1-5.42-1.04-2.67-.57-4.66-3.55-7.7-2.81h0c-2.01-.81-4.13-.75-6.2-1.12-.2-.16-.4-.33-.6-.49-1.13,0-2.26,0-3.39,0-.87-.22-2.24,.32-1.94-1.67,1.59,.32,3.3-.53,4.82,.58,2.96-.21,5.91-.02,8.89,.04-1.67-1.36-3.82-.48-5.47-1.74-1.99-1.06-4.13-1.57-6.26-1.96-3.09-.56-6.39-.29-8.77-3.29-.13,.02-.26,.03-.39,.03-.35,.09-.69,.18-1.04,.27-2.16-.56-4.41-.87-6.47-1.74-1.86-.78-3.68-1.07-5.6-1.01-.15-.25-.31-.26-.49-.03-.64-.19-1.28-.38-1.92-.58h0c-1.49-.26-2.49-1.84-4.08-1.91-.65-.03-1.07-.87-.49-1.37,2.23-1.94,.23-1.79-.71-2.18,.07-.17,.05-.35-.08-.54,.17-1.18,.96-.6,1.48-.61,1.93-.05,3.87-.02,6.46-.02-1.49-1.36-2.55-1.5-3.66-1.62-.78-.08-2.13,.6-2.16-.86-.03-1.74,1.39-1.31,2.4-1.34,6.24-.19,12.48-.39,18.71-.59h0c.81,0,1.61,0,2.42,.01,.28-.7,1.47-.29,1.39-1.58h-4.74c-.33-.19-.68-.37-.91-.67-.23-.1-.48,1.21-.73,1.19-5.72-.97-11.47-.6-17.22-.56-.27-.02-.53-.02-.8-.03-2.48-.05-4.96-.14-7.34,.02-1.32,.05-2.71-1.34-3.59,.15,.03,.13,.08,.23,.12,.34-.01,0-.03,0-.04,0-.61-.41-1.22-.81-1.97-.76-1.32-.01-2.65-.08-3.97,.07,0,0-.01,0-.02,0-.38-.14-.75-.17-1.1,.04-.1-.04-.21-.08-.31-.12-.67,.09-1.11-.4-1.62-.75,.1-.23,.2-.46,.31-.69,.28-.03,.56-.07,.84-.1,1.14-.08,.5-1.94,1.58-2.07h0c.85-.9,1.9-.5,2.88-.58,.15-.03,.29-.04,.44-.04,0,0,.04,.04,.04,.04,0,0,0,0,0,0,.11,0,.23,0,.34-.01,.39,.47,.92,.57,1.26,.14,.95-1.2,1.84-.56,2.78-.14,.22,.1,.45,.17,.69,.21,.92,.36,1.76-.52,2.67-.21,.15,0,.3,0,.45,0,2.54-.34,5.03,.96,7.72,.42-.38-.38-.66-.65-.95-.93-2.49,.22-4.72-1.79-7.26-1.09-.95-.22-1.9-.43-2.85-.65-1.46,.25-2.98-.26-4.42,.36,.34-.51,.84-.64,1.49-.64,2.25,.03,4.46-.61,6.7-.7-.02,.11-.03,.22-.01,.32,.04,.02,.08,.04,.11,.07,4.34,.21,8.68,.43,13.02,.64,.41,.51,1.07,.05,1.49,.51,2.37-.08,4.69,1.11,7.15,0l-4.3-1.08c-1.64,.17-3.23-.3-4.83-.54-1.29-.19-2.58-.38-3.86-.57-.97,0-1.94,0-2.91,.01h0c-4.67-.74-9.34-1.48-14.01-2.22-.23,0-.46,.02-.69,.03-.23-.04-.45-.09-.63-.2-.07-.04-.09-.06-.1-.07-.02,0-.05,0-.12-.03-2.66-2.71-5.64-1.46-8.56-.89h0c-.27-.58-.27-1.03,.44-1.09,1.77-.15,3.54-.29,5.32-.43h0c1.07,.86,2.31,.28,3.45,.54-.09,.07-.16,.12-.24,.18,1.01,0,2.01,.09,3,.46,.25,.06,.5,.1,.76,.09,1.27,.02,2.53,.02,3.79,.26,.26,0,.52-.04,.77-.13,.12-.09,.25-.14,.38-.18,1.5,.34,3,.19,4.5-.19,.32,0,.64-.01,.97-.02,1.05,.99,2.28,.47,3.44,.53h0s0,0,0,0c2.86,.18,5.72,.37,8.59,.55h0c2.73,.67,5.5,.56,8.27,.66q2.51-.15,2.87-1.11c-3.22-.2-6.47,.45-9.65-.59-.53,0-1.07,0-1.47-.49-1.44-.03-2.87-.05-4.31-.08-.49,0-.97,0-1.46,.01-.13-.06-.26-.08-.4-.07h0c-4.01-1.07-8.08-1.1-12.16-1.01-.14-.05-.29-.07-.44-.07-2.59-.15-5.23,.57-7.77-.53-2.43-.33-4.86-.66-7.28-.99-3.74-.88-7.54-.79-11.32-.93-2.3,.09-4.54-.32-6.8-.82-1.7-.38-3.58-1.03-5.13,.7,.01,.13,.04,.24,.07,.34-.02,0-.04,0-.07,0-.29,.02-.59,.04-.88,.06-.32,0-.64,0-.97,0-2.37-.38-4.73-1.04-7.1-1.09-11.53-.24-22.99-1.73-34.46-2.83-2.72-.19-5.43-.37-8.15-.56-1.42-1.39-.35-1.69,.62-1.47,3.49,.81,6.93-.47,10.4-.09,.03,.14,.06,.27,.11,.4,2.92,0,5.84,0,8.76,0,0-.27-.02-.54-.03-.81-1.92-.3-3.84-.74-5.81-.28-1.18-.92-2.51-1.11-3.89-1.07-1.32-1.94-3.28-.35-4.81-1.12-.25-.02-.5-.02-.75,.02-1.2,.42-2.48,.19-3.68,.57-.2,.13-.36,.31-.48,.53-.03-.08-.05-.16-.1-.25-.7-.65-1.52-.48-2.32-.46-.22,.03-.44,.08-.65,.17-.71,.53-1.43,.22-2.15,.06-.34-.03-.67,.01-.99,.14-.89-.7-2-.28-3-.43-4.06-1.05-8.13,0-12.18,.08-4.19,.09-8.31-1.01-12.49-.53-3.49,.86-7.03,.24-10.54,.47-.84,.05-1.9-.28-2.37,.81,0,0-.02,0-.02,.01,0,0,0,0,0,0-1.44-.78-3.06-.22-4.52-.79-.48-.01-1-.11-1.43,.11-2.38,1.2-4.7,1.71-6.96-.35-.24-.21-.61-.18-.94-.16-6.13,.36-12.25-.5-18.39-.28-2.37,.09-4.72-.71-7.17-.18-3.69,.8-7.53,.26-11.15-.11-3.56-.36-7.14-.26-10.7-.7-1.02-.12-2.11-.11-3.12,.16-5.97,1.59-11.92,1.15-17.86-.12-2.11-.69-4.27-.6-6.44-.66-3.52-.1-7.06,.43-10.55-.43-.73-.18-1.5,0-2.07,.52-1.4,1.26-2.82,.96-4.28,.3-.27-.02-.55-.04-.82-.06-3.47-.83-7.01-.6-10.51-.78-1.76-.09-3.42-.94-5.24-.55-3.46,.74-7,.66-10.47,.58-4.46-.11-8.93-.96-13.41-.62-3.04,.23-6.09,.39-9.11,.42-4.88,.04-9.76-.23-14.65-.11-.32,.07-.57,.21-.76,.43-5.19-.15-10.37-.3-15.56-.45-2.76,.35-5.53,.39-8.29,.01-.15,0-.29-.02-.44-.07-1.57-.65-3.09-.13-4.62,.23-.13,.07-.24,.17-.33,.28-.59-.14-1.18-.36-1.76-.35-5.5,.09-10.99,.23-16.49,.36-.09-.14-.22-.26-.45-.34-1.51,.07-3.01,.33-4.51-.09-3.34-.02-6.68-.05-10.03-.07-2.9,0-5.8,0-8.7,0-2.21,.55-4.47,.34-6.71,.46h0c-.65-.5-1.39-.4-2.11-.38-6.03,.13-12.05,.37-18.08,.41-7.58,.05-15.16,.04-22.74,.03-1.89-.24-3.78-.46-5.69-.26-.64,.07-1.31,0-1.89,.25-.91,0-1.82,0-2.73,0-1.77-.37-3.54-.46-5.31,.06-3.38-.03-6.77-.06-10.15-.08-3.38-.1-6.75,.52-10.14,.11-1.62,.47-3.23,.02-4.85,0-.84,.42-1.7,.23-2.58,.2-6.12-.19-12.23-.22-18.34,.34,0,0,0,0,0,0l-.1,.12,.1,.11s0,0,0,0c-.89-.8-1.98-.79-2.98-.67-7.06,.82-14.14,.25-21.2,.22-13.32-.07-26.64-.94-39.97-1.48-1.61,.01-3.23,.03-4.84,.05h0c-1.6-.19-3.2-.38-4.8-.57-.3-.14-.5-.35-.56-.62-.9,.07-1.82-.18-2.69,.24-1.69,.27-3.26-.22-4.79-.98-.76-.54-1.6-.61-2.47-.59-.57,.02-1.14-.02-1.69,.19-.1,.06-.2,.11-.3,.15,.11-.25,.32-.32,.56-.32-.08-.09-.15-.19-.2-.33,.08-.04,.17-.06,.26-.1,1.64-.41,3.29-.6,4.93-.44,.45,.08,.89,.18,1.33,.3,1.7,.49,3.34,1.24,5.12,1.31,2.1-.14,4.2-.28,6.3-.43,0,0,0,0,0,0h0c.33-.27,.67-.37,1.02-.38-.34,.1-.68,.22-1.02,.38,.8-.05,1.6-.1,2.4-.15h0s0,0,0,.01c.02,0,.04,0,.07-.01,2.09-.1,4.23,.67,6.27-.42h0c.46-.01,.93-.02,1.39-.03,.81-.02,1.61-.04,2.42-.06,.16,0,.32,.02,.48,.03,11.59,.36,23.15,.08,35.2-1.17h0c-.72-.37-1.16-.6-1.55-.8-.12-.03-.24-.08-.34-.18-8.01-.07-16.02-.18-24.04-.19-8.08-.01-16.17,.08-24.25,.13-2.42-.17-4.83-.35-7.25-.52-.12-.08-.25-.1-.38-.08-1.53-.89-3.06-1.03-4.59-.01-.13-.04-.25-.02-.35,.07-1.52-1.17-3.21-.59-4.84-.6-.48-.28-.96-.47-1.45-.03-.29,0-.58,0-.87,.01-.85-.56-1.69-.52-2.53,.01h-.01c-1.15-.21-2.3-.4-3.44-.39-.74-.29-1.56,0-2.33-.12h-1.2c-1.58,.1-3.15,.05-4.73-.03-1.56-.16-3.12-.27-4.69-.19-.57-.01-1.14-.03-1.71-.02-.09,0-.18,.05-.27,.06-.02-.03-.04-.06-.07-.09-1.23-.67-2.55,.53-3.77-.25-2.66-.8-5.39-.11-8.09-.56-5.2-.88-10.53,.36-15.72-1.09-.5-.14-.93,.16-1.32,.52-7.7,.43-15.41-1.73-23.11,.08-.05,.13-.09,.26-.14,.38-2.56,.06-5.12,.18-7.68,.15-5.36-.07-10.69-.54-15.96-1.7-1.58-.16-3.16-.32-4.74-.47-2.6,.71-5.37-.48-7.92,.9,0,0,0,0-.01,0-3.23-.09-6.38,.59-9.54,1.16-1.42-.37-2.96,.39-4.33-.54-.7-.8-.85-.02-1.04,.5-.31,.87-.43,1.89-1.35,2.3-.19,.34-.39,.68-.58,1.03h-.01c-.65,.07-1.38,0-1.37,1.13,1.28,.19,2.57,.38,3.85,.57,.83,.45,2.42-.2,2.49,.91,.13,2.06,1.35,1.59,2.3,1.91,.51,.88,.68,1.62-.48,2.04-1.13,.41-.67,.91,.01,1.35,.64,.23,1.04,1.07,1.93,.75,1.92-.69,3.78-.08,6.07,.6-1.34,.33-2.37,0-3.18,.72h0s0,0,0,0c-1.76,.14-3.56-.14-5.27,.6-.05,.02-.11,.03-.16,.05-.02-.1-.02-.19-.05-.31-.73,.07-1.5-.28-2.18,.27h0c-1,0-2.02-.22-2.94,.48h0c-.32,.04-.75,.25-.93,.09-1.15-.99-1.8-.82-2.98,.38-1,1.02-2.24,2.39-3.92,2.38-2.21-.02-3.23,1.56-3.77,3.75-3.51,1.42-4.08,2.39-3.41,6.09,.15,.82-.26,1.17-.57,1.66h0c-1.63,.93-3.25,1.88-5.15,1.14-1.37-.91-2.87-.45-4.32-.54l-.05-.02c-.79-.55-1.82-.95-2.28,.1-.5,1.17,.1,2.3,1.18,2.9,.85,.48,1.72,.92,2.57,1.38,.29,.07,.58,.14,.87,.2,.83,.49,.23,1.63,.79,2.25,.1,.62,1.64,.82,.56,1.78-.08-.08-.16-.16-.26-.23-.23-.12-.47-.18-.72-.18-.12,.01-.23,.03-.34,.05,0,0-.01-.01-.02-.02-.46,.02-.91,.03-1.37,.05-.43-.25-.92-.36-1.37-.58-.22-.05-.43-.07-.66-.06-.88,.18-1.71-.13-2.55-.3-.21-.05-.43-.09-.65-.1-.55,0-1.11-.06-1.56,.42-.82,.31-2.07-.54-2.38,1.16,.71,.15,1.06,1.18,1.9,1.03,1.29-.15,2.58-.29,3.86-.44,.97,.41,1.94,.82,2.9,1.23,.71,.62,1.55,1.08,1.91,2.11-1.6,.88-3.23,.7-4.85,.1-2.2-.22-4.41-.48-6.61-.64-.75-.05-1.85-.68-2.01,.99,1.87,.64,3.32,2.83,5.54,2.11,1.7-.55,3.33-.22,4.96,.26,.06,.16,.09,.33,.09,.51,.06,1.32,.65,2.09,1.79,2.3,.2,1.94-.97,2.12-2.21,2.41-1.16,.27-2.75,.16-2.44,2.43,.66,.12,.81,.68,1.01,1.33,.29,.92,.66,.39,.95-.08,1.54-.18,1.93,1.16,2.57,2.29-1,.62-2.07-.01-2.83,.83h0c-.64,.52-1.37,.7-2.13,.78-.84,.49-2.13,.79-.6,2.17,.14,.13,0,.66,0,1h0c-.34-.05-.68-.1-1.03-.14-.48,.77-2.79,.16-1.36,2.37,.59-.49,.85-1.75,1.93-1.1,1.46,2.3,3.87,1.86,5.85,2.68,.15,.53,.82,.68,.85,1.43-.72,0-1.31,.15-1.89,.38-1.43-1.84-3.36-.67-5.09-1.31q.66,2.33,3.76,3.94h.19s.19,.05,.19,.05c.29,.36,.63,.32,.99,.17,.04-.07,.05-.14,.07-.22,1.12,.72,1.09,1.67,.37,2.77-.17-.1-.34-.13-.53-.03-1.36,.84-2.43,2.39-4.19,2.24h0c-.91-2.16-1.87-2.51-3.1-1.02-.54,.65-1.13,.54-1.75,.61-.06,.14-.1,.29-.12,.45h0c-.58,.24-2.05,.14-1.48,.86,.79,.98-.84,3.45,1.54,3.12l.17,.06,.18-.03h0c1.4,.48,2.53,1.43,3.49,2.67-1.26-.27-2.63,.26-3.82-.61-1.86,.25-.95,1.41-.61,2.39-.01,1.16-.76,.91-1.37,.92-.13,.08-.27,.13-.42,.15,.17,.29,.34,.59,.51,.88,1.09-.02,1.75,1.12,2.77,1.3h0s0,0,0,0c.17,.17,.35,.34,.52,.51,1.47,.49,.9,2.86,2.45,3.37,1.12,.37,1.39,1.59,.97,2.66-.78,2.03,.42,1.68,1.38,1.72,.03-.03,.06-.04,.09-.07,0,0,0,0,0,0-.03,.02-.05,.05-.08,.06,0,0,.01,0,.01,0,0,0,0,0,0,0,0,.17,.03,.33,.08,.48,1.54,.46,2.43,2.5,4.25,2.28,.35,.9,.7,1.8,1.05,2.7,1.11,.64,2.69,.21,3.63,2.19-2.16-.23-4.02-.2-5.6-1.59-.15-.03-.3-.04-.46-.04-.67-.32-1.35-.65-2.02-.97-1.1-.24-2.2-.48-3.3-.72-.29,.17-.58,.35-.87,.52,.58,.23,1.16,.46,1.74,.69,.55,.27,.82,1.07,1.52,1.06,.66,.36,1.32,.71,1.98,1.06,1.4-.12,2.55,.74,3.8,1.21,1.13,.37,2.27,.73,3.4,1.1,2.06-1.61,2.51-1.51,3.37,1.21-.11,.02-.22,.04-.33,.06-1.01-.69-2-.9-3.03-.78-.78,.73-1.55,.52-2.41,.12-.43-.2-1.23-.87-1.36,.47-.67,.21-1.33,.41-2,.62h0s0,0,0,0c0,0,0,0,0,0-.17-.17-.33-.37-.47-.6-.15-.2-.32-.38-.51-.52-.54-.31-1.08-.6-1.66-.79-1.09-.48-2.1,.85-3.19,.21-.46-.11-.91-.22-1.37-.33-.58-.14-1.28-.69-1.69,.12-.43,.85,.57,1.11,.79,1.73,3.63,1.18,7.26,2.35,10.89,3.53,2.14,.67,4.27,1.34,6.41,2.01,.79,.03,1.59,.07,2.38,.1l.2,.07,.21-.04h0c2,1.03,4.25,.22,6.26,1.13,.52,.34,1.04,.69,1.56,1.03,.92,.34,1.7,1.1,2.57,1.38-.85,.13-1.71,.71-2.63,.69-.77-.16-1.54-.32-2.31-.48h0c-1.66-1.13-3.52-1.41-5.39-1.65-2.3,.52-4.42-1.65-7.09-.75,1.3,1.07,2.74,.91,3.66,1.97,2.47,1.17,5.08,1.34,7.7,1.52,.12-.03,.24-.08,.35-.13,.35,.23,.78,.18,1.18,.23-1.15,.98-2.5,.64-3.69,.47-2.18-.32-4.31-.99-6.47-1.52h-1.44c-3.04-.57-6.01-1.32-8.68-3.28-.81-.6-2.12-1.83-2.83,.39,.63,.37,1.26,.74,1.89,1.12,1.65,.98,3.19,2.24,5.07,2.64,.84-.21,1.63,.07,2.42,.32,.54,.08,1.1,.29,1.56-.2,.03,.14,.1,.3,.21,.47,2.35,1.56,5.05,1.45,7.59,2.06,.62-.05,1.26,.02,1.75-.54,.07-.12,.15-.18,.23-.25h.19c-.08,.13-.15,.3-.2,.55,1.1,1.32,2.51,.63,3.8,.74,.3-.1,.6-.18,.9-.27,.89,.52,1.83,.94,2.81,.79,3.32-.51,6.56,.43,9.84,.44h0c3.56,.93,7.24,.28,10.82,.98-.07-.02-.14-.04-.2-.07,.17,.04,.34,.08,.55,.13-.13,0-.24-.03-.34-.06,.12,.02,.23,.03,.35,.06h0c.48,.01,.97,.02,1.45,.03,.78-1.06,1.65,.03,2.47-.13,.62,.02,1.25,.04,1.87,.06h0c1.76,.42,3.52,.76,5.33,.59,.14,0,.27,0,.41-.01,.96,.35,1.96,.52,2.93,.8,3.4-.04,6.82,.32,10.22-.21,.2-.23,.32-.41,.4-.58,.01,.01,.03,.02,.04,.04,1.64,.55,3.29-.05,4.93-.05,2.58,.01,5.4,2.31,7.76-.88,.22-.29,1.08-.05,1.62,.08,.44,.11,.8,.67,1.33,.3,2.36-1.67,4.98-1.11,7.53-1.21,.2,.04,.4,.08,.59,.12,.67,.53,1.44,.48,2.2,.52,.23,.03,.45,0,.67-.03-.17-.14-.33-.3-.5-.51,.56-.49,1.2-.68,1.89-.64h0c.8,0,1.59,0,2.39,0,.14,.09,.35,.21,.5,.34h2c.15,0,.29,0,.44,0,.28,.13,.57,.1,.86,0,.34,0,.67,0,1.01,0,.52,0,1.05,0,1.57,0,.67-.03,1.35,.03,1.99-.29,.09-.08,.19-.16,.29-.24,1.57,1.12,3.28,.35,4.94,.26,.19-.01,.16,.29-.09,.26-.31-.05,.03,.36-.2,.12-.77,.63-1.67,.38-2.53,.5-1.16,.17-2.38-.76-3.49,.23-.01,.03-.03,.04-.05,.06,0-.02-.02-.04-.03-.06-1.75,.17-3.49,.35-5.24,.52-1.26-.12-2.12,1.21-3.35,1.21h0c-.01,.35-.03,.7-.05,1.04,3.7-.18,7.41-.37,11.11-.55,.52,.39,.88,.24,1.09-.42-.02-.06-.05-.1-.08-.16,3.21,.32,6.42,.24,9.63-.03,3.5-.89,7.1-.79,10.64-1.07,1.45-.11,2.92-.82,4.47-.13,1.8,.8,3.74,.85,5.67,.58,.6-.35,1.27-.07,1.89-.3,.79-.29,2.07-.08,1.95-1.48-.11-1.35-1.26-1.07-2.13-1-1.27,1.01-2.67,1.05-4.07,.98,.48-.06,.87-.35,1-1.3-.55-.93-1.31-.65-2.1-.59-1.32,.11-2.63,.39-3.96,.41-.45,.1-.89,.28-1.3,.63-1.72,.46-3.41,1.45-5.21,.36-.99,.2-1.95,1.19-3,.19h0c-1.02-.29-2.12-.85-2.42,1.04-.8,.1-1.6,.16-2.39,.33-.7,.15-1.37,.2-1.56-.73-.22-1.06,.49-1.56,1.22-1.68,2.69-.44,5.39-.78,8.09-1.16h0c1.75-.03,3.5-.05,5.25-.08h2.46c.19-.11,.38-.25,.54-.44,.14-1.02-.44-1.46-1.12-1.81-2.85,.21-5.7-.03-8.55-.18-1.67,.59-3.46,.38-5.13,.97-1.49,.71-3.03,.82-4.61,.49-.92,.12-1.84,.2-2.76,.26-1.19,.68-2.6,.17-3.78,.91-.08,.12-.17,.23-.25,.35,0,.01-.02,.02-.03,.03-.03-.07-.05-.14-.09-.22-1.03-.9-2.37-.5-3.47-1.08-1.18-.11-2.38-.2-3.55-.02-2.04,.31-4.07,.8-6.12,.24-.08,.11-.16,.21-.24,.29-.18,.15-.37,.27-.58,.35-1.75-.92-3.49-1.96-5.46-1.46-.25-.15-.5-.29-.75-.44-.44-.15-.88-.24-1.34-.23-1.27,.2-2.31-.2-3.06-1.3,.01,0,.03,0,.04,0,.7,.59,1.24,.45,1.68-.14,.17,.11,.36,.2,.56,.29,.95,.19,1.91,.04,2.86,.14,4.73,.51,9.32-1.12,14.02-1.13,.9-.04,1.81-.09,2.71-.16,3.75,.36,7.39,1.75,11.17,1.85,.27,0,.54,0,.81-.03,1.94-.09,3.89,.21,5.82-.2,.28-.27,.44-.5,.54-.73,.12,.22,.28,.36,.51,.42,.19-.06,.38-.09,.57-.13,1.84,.65,3.77,.09,5.64,.39,1.74,.28,3.5,.43,5.23,.85,.02,0,.03,0,.05,0-.12,.33-.11,.68,.24,1.01,.89,.85,1.84,.67,2.7-.19l.03-.09c.81,.15,1.22-.18,1.38-.83,.44,.05,.87,.18,1.31,.08,.1,.01,.19,.01,.29,.02,.29,1.32,.94,1.4,3.32,.9,.46-.22,.93-.3,1.4-.35,.2,0,.4,0,.59-.04,.31-.01,.61-.02,.92-.03,.02,.02,.03,.05,.05,.07,.93,.74,1.99,.53,3,.49,3.25-.14,6.46,.26,9.67,.8,1.07-.12,2.14-.2,3.21-.08-.06,.24-.09,.48-.03,.75-.97,1.05-2.45-.07-3.4,1.05,2.73-.24,5.47,.77,8.19-.06,.64-.6,1.41-.51,2.18-.48,.63,.26,1.26,.48,1.94,.49,1.36,.36,2.66,0,3.95-.41,1.64,.16,3.28,.32,4.92,.37,1.83,.21,3.67-.49,5.5,.08,1.83,.27,3.68,.24,5.53,.29,2.48,.07,4.97-.33,7.43,.25,2.71,.22,5.42,.43,8.13,.65,.04,.14,.08,.28,.11,.43h0c.62,.56,1.27,.42,1.91,.08,.48,0,.96,0,1.43,.01,1.27,.03,2.54,.05,3.8,.08,.07-.09,.1-.18,.13-.28,.01,0,.02,0,.03,.01-.05,.09-.11,.18-.16,.27,3.57,.33,7.14,.67,10.71,1h.48c3.96,.34,7.92,.89,11.89,.96,3,.05,6-.18,8.95,.64,2.22,.02,4.44,.04,6.67,.06h0c1.72,.47,2.91,2.69,4.94,2.05,3.39-1.07,6.73-.47,10.09,.12,0,.18,0,.37,0,.55,.15,.01,.3,.02,.45,.04,2.4-.16,4.81-.32,7.21-.48,.02-.05,.03-.1,.05-.15,0,0,.02,0,.03,.02,.17-.03,.34-.06,.51-.08-.26-.34-.54-.56-.82-.74-.99-1.01-2.43-.19-3.53-.73-.88-.17-1.74-.18-2.57,.26-.1,.07-.21,.14-.31,.21-.62-.67-1.44-.91-2.26-.93-2.77-.1-5.54-.58-8.32-.26-.82,.1-1.77-.36-2.46,.53,.15-.51,.04-.94-.15-1.34,1.15,.13,2.29-.13,3.44-.18,.98,.78,1.97,.68,2.96,.04h0c.63-.03,1.26-.06,1.89-.09,.05-.67-.34-1.15-.78-1.16-2.64-.09-5.32-.86-7.87,.59-.18,.04-.37,.08-.55,.11-4.66-.4-9.31-.81-13.96-1.21h0c.34-1.44,2.63-.75,2.37-2.84-.27-.08-.54-.15-.81-.22,1.84,.04,3.59,.61,5.4,.82,3.37,.39,6.67,.35,9.53-2.2,.34-.56,.71-1.04,1.38-.71,.2,.02,.41,.02,.61-.03,0,0,.01,0,.02,0,.21,.37,.53,.59,.93,.72,.24,.06,.48,.08,.73,.05,2.36-.53,4.78-.16,7.15-.86,3.09-.91,6.21-1.5,9.48-.72,1.49,.35,3.24,.1,4.64-1.08,.08,.11,.16,.22,.24,.36,.52,.36,1.09,.4,1.68,.31,.01,0,.02-.01,.03-.02-.02,.56,.13,1.08,.59,1.51,.16,.12,.33,.12,.49,0,.01-.05,.03-.08,.05-.12,.1,.22,.22,.45,.36,.69,.94,.63,2.02,.52,3.04,.63,1.5,.16,3.02-.42,4.53,.09,2.54,.86,5.18,.84,7.79,1.02,4.92-.87,9.88-.2,14.82-.43,1.18-.05,2.41,.27,3.52-.46,.1-.09,.16-.19,.21-.3,.14,.06,.28,.11,.42,.18,4.87-.15,9.75,.27,14.62-.13,.49-.04,1.03,.01,1.44-.2,1.09,0,2.18,0,3.27,0h0c1.31,.02,2.62,.04,3.92,.06,1.13-.01,2.25-.02,3.38-.03,2.24,0,4.49,.02,6.73,.02h0c1.01-.69,1.98,.14,2.97,.13,1.44-.03,2.87-.52,4.31,0h0c1.31,.37,2.62,1.3,3.91-.04,3.54,1.22,7.04,.14,10.55-.28,.18-.02,.32-.55,.48-.85-1.76,0-3.53,0-5.29,0-.15-.01-.3-.01-.45,.01h0c-1.78-.02-3.55-.03-5.33-.05-1.32,0-2.65,0-3.97,.01-.18-.32-.45-.56-.8-.71-2.11,.05-4.25-.78-6.3,.4-.06,.08-.1,.16-.14,.24-.59-.61-1.19-.59-1.81,.01,0,0,0,0-.01,0,0-.01,0-.03-.01-.04,.01,0,.02,0,.03,0-.02-.01-.03-.03-.05-.04-.06-.14-.15-.26-.28-.36-.06-.03-.12-.04-.18-.06,0,0-.01-.01-.02-.02-.01,0-.02,0-.03,0-1.43-.53-2.91-.15-4.36-.28-.37,0-.73,0-1.1,0-.48,0-.94-.18-1.41-.12-.36,.08-.66,.28-.91,.59-.05,.11-.11,.22-.16,.34-.23-.05-.47-.06-.72-.04-.7-.32-1.41-.31-2.11,.07-.48-.13-.89-.49-1.17-1.29,.06-.11,.12-.23,.19-.35,.09-.39,.07-.77-.08-1.13-.31-.49-.73-.61-1.22-.53-1.11-.48-1.78,.25-2.47,.91-1.34-2.23-3.29-.99-5.04-.85-.92-.73-1.97-.67-3.02-.7-.99-.03-1.98,.79-2.99,.03,2.73,.15,4.49-.26,5.92-1.37,.12,.1,.23,.2,.37,.27,.72,.31,1.45,.3,2.19,.08,.19-.17,.37-.26,.55-.32,.08,.07,.15,.15,.23,.22,.43,0,.87,.06,1.29,.03,.4,.17,.79,.34,1.2,.28,.22-.02,.44-.06,.66-.15,.13-.07,.25-.15,.36-.23,.25,.06,.52,.07,.78,.1,.54,.55,.94,.37,1.28-.14,.17,.32,.4,.55,.71,.68,1.09,.22,2.12-.48,3.21-.23,.36,0,.71,0,1.07,.06,1.05,.39,2.12,.61,3.23,.43,.25,0,.49-.04,.73-.12,1.55-.57,3.14-.41,4.73-.31,.49,0,.96-.12,1.39-.4,.3-.13,.49-.33,.62-.57,.47,.03,.94,.06,1.4,.09h0c.98,.99,2.11,2.71,3.19,2.39,3.81-1.14,7.57,.49,11.32-.2h0c.15,.02,.31,.03,.46,.03,1.4,1.15,2.42-.87,3.78-.56,1.99,.46,4.05,.33,6.07,.39,1.1,.03,2.65,.46,3.43-1.21,.02-.11,.02-.21,.01-.3,.25,0,.51-.01,.76-.02h0c-.18,.66-.36,1.31-.75,2.74,1.68-1.72,3.24,.38,4.6-1.06h0c.81,0,1.61-.02,2.42-.02,1.54,.96,3.22,.42,4.83,.58h0c1.2,.43,2.42,.56,3.64,.59,.27,.15,.58,.2,.92,.05,.06-.03,.13-.03,.19-.06,.72-.02,1.44-.05,2.16-.07,.98,.24,1.9,.73,2.89,.85,1.55-.4,3.15-.43,4.7-.82,1.26,.02,2.55-.26,3.76,.41,.53-.85,1.29-1,2.13-.94,7.05,.47,14.1,.35,21.14-.03,.29,.32,.77,.36,1.28,.28,1.24-.19,2.52,.47,3.75-.17,.02,0,.03,0,.04,0,.12,.23,.23,.48,.35,.72,3.22,1.27,6.42,.83,9.61-.17,.81-.03,1.61-.05,2.41-.08,.82,.65,1.66,.92,2.55,.14,.68-.6,1.47-.36,2.23-.41,1.51,.14,3.17-.56,4.49,.33,1.8,1.21,3.49,1.02,5.3,.43,.05-.32,.14-.57,.24-.77,.09,.06,.15,.15,.17,.27,.16,.02,.32,.03,.48,.03h0c1.89,1.12,3.94,.59,5.87,.45,2.68-.19,5.29,.16,7.9,.29,1.82,.09,4.11,.13,6.08-.71-.46,.31-1.1,.54-1.02,1.28,.1,.91,.83,.55,1.32,.6,.46,.05,.92,.01,1.38,.01,0,.1,.07,.2,.21,.3,0,0,0,0,0,0h0c.03,.15,.07,.3,.12,.44-.53,.06-1.06,.11-1.59,.17,1.15,.63,2.3,.82,3.42-.08,.14-.04,.29-.05,.44-.04,.04-.16,.08-.31,.13-.46h0c.58,0,1.16,0,1.74,.01,1.43,.77,2.94,.38,4.43,.4,.11,0,.22,0,.33,0,.01,.04,.03,.07,.04,.11,.21,.13,.41,.11,.61-.03,.02,.08,.03,.16,.07,.25,1.05,.88,2.4,.46,3.51,1.06,.85,.08,1.7,.12,2.55-.1,5.15-.92,10.34-.92,15.53-.83,5.84,.1,11.68,.1,17.52-.36,.16,0,.32,0,.48,0,2.18-1.31,4.69,.17,7.38-1.12,0,0,0,0,0-.01-2.91-.87-5.42-.03-7.86-.51h0c0-.19,0-.37,0-.56,0,0,0,0-.01,0,.02-.05,.02-.11,.05-.16-.27,.04-.54,.06-.8,.06-.4,.16-.79,.37-1.17,.66-5.63,.54-11.27,.46-16.92,.55-.58,.64-1.38,.77-2,.5-3.63-1.6-7.35-.18-11.01-.57-.3-.39-.46-.71-.53-.99-1.73-.09-3.46,.54-5.18,.11,.01-.08,0-.16,0-.24,1.28-1.04,2.97,.13,4.24-.94h0c.81,0,1.61-.01,2.42-.02,.47,0,.95-.02,1.42-.03,.76,.75,1.68,.49,2.54,.51,2.71,.06,5.41,.06,8.12,.09,1.44-.35,2.98,.3,4.36-.57h0c4.99-.2,9.97-.39,14.96-.59,.28-.7,.76-1.04,1.42-1.07,2.38,.4,4.6-.46,6.84-1.11h0c.44,0,.89,0,1.33,0,0,0,0,0,0,0,.77,.66,1.67,.62,2.48,.34,1.26-.44,.33-.95-.07-1.4-2.75-.15-5.51-.48-8.23,.4-.14-.03-.27,0-.4,.06-2.42-.3-4.84-.22-7.25-.03h0c-.87-.6-1.84-.31-2.77-.44-.79,.43-1.57,.72-2.5,.64-3.39-.3-6.79-.47-10.19-.7-1.21-.53-2.33-.15-3.41,.5-.04,.02-.07,.04-.11,.06,0-.02,0-.04,0-.06-3.63-.44-7.37-.41-10.89-.12-3.19,.26-6.52,.95-9.79,1.43-1.11,.16-2.23,.23-3.35,.34-5.16-.16-10.32-.33-15.47-.49-.34,.33-.77,.35-1.14,.25-.18-.05-.36-.08-.54-.13-.09,.07-.18,.13-.26,.21-.1,.04-.11,.12-.08,.21-.11-.03-.22-.06-.33-.05-.07,0-.13,0-.2-.01,.05-.18,.08-.4,.09-.65-3-1.12-6.16-1.17-9.21-1.03-6.59,.31-13.12-.16-19.66-.82-2.38-.24-4.82-.5-7.08,.88-.17,.2-.26,.39-.32,.57-.14-.04-.28-.06-.42-.03-1-.3-1.98-.32-3.03-.09-3.05,.65-6.1,.47-9.12-.38-.59-1.03-1.54-.76-2.39-.87-2.02-.26-3.95,.59-5.96,.58-5.4-.03-10.77-1.22-16.2-.53-.39,0-.77,.04-1.14,.2-.06,.11-.14,.19-.21,.28-1.82-.52-3.64-.39-5.46,.29h0c-.8,.01-1.61,.03-2.41,.04h0s0,0,0,0h-.02s0,0,0,0c-2.4-1.18-4.81,.43-7.22-.06-.12,.24-.32,.3-.54,.32,.18-.11,.36-.21,.54-.32-1.13,.02-2.26,.04-3.39,.05-.13-.06-.27-.09-.41-.1-.05-.14-.1-.27-.15-.41-1.27-.01-2.53-.02-3.8-.03-.31-.03-.62-.06-.93-.08-1.46-.75-2.81,.45-4.18,.34-3.3-.27-6.58-.73-9.86,.23h.02c-2.89,.5-5.51-1.62-8.42-1.11-.47,.08-.43-.44-.35-.86,.18,0,.35-.08,.49-.24,.78-1.38,1.88-2.09,3.3-2.16,0,.02,0,.04-.01,.06,.15,.24,.35,.42,.58,.55,1.09,.14,2.19,.24,3.26,.21-.11,.08-.23,.18-.33,.31,.84-.01,1.74,.27,2.46-.52-.04,0-.09,0-.13,0,1.01-.21,2.01-.58,2.98-1.2,.02-.01,.03-.03,.05-.05,.03,.15,.05,.29,.09,.45,.66,.48,1.34,.49,2.03,.08,.04-.21,.11-.37,.2-.5,1.04,0,2.08,.02,3.13,.03,.06,.09,.11,.18,.19,.26,.3,.22,.63,.32,.98,.3,.13-.06,.24-.13,.37-.19,.72,.76,1.72,.88,2.5,.76,2.35-.36,4.71-.17,7.05-.49,.23-.09,.47-.14,.71-.18,1.99,.72,3.99,.7,5.98-.17,.33,.15,.69,.22,1.09,.19,5.29-.33,10.58-.14,15.88-.23,1.57-.03,3.15,.17,4.43-1.09,.12,.08,.22,.17,.36,.23,1.03,.24,1.99-.29,3-.31,.5-.28,1-.48,1.5-.65,2.03-1.6,4.3-.86,6.52-.64,3.34,.71,6.69,1.27,10.1,1.06,.07,.12,.14,.24,.21,.35,0,.13-.03,.26-.07,.37,1.39-.56,2.83-.31,4.26-.37,.02,0,.05,0,.07,0-.04-.04-.07-.06-.11-.1-.15-.27-.14-.53,.04-.78,1.73-.17,3.46-.55,5.17-.43,1.33,.1,.77-.86,.92-1.41,0-.03-.02-.05-.03-.08,.02,0,.04,0,.06,0l-.02-.02s.05-.07,.07-.11c0,.04,0,.07,0,.11,1.99-.17,3.92,1.13,5.93,.33,.13,.28,.27,.53,.43,.75,1.74-.24,3.54,.22,5.24-.53,.11-.08,.23-.13,.34-.18,.15,.13,.35,.19,.56,.28,2.61,1.18,5.3,.55,7.97,.5,1.42-.41,2.8,.06,4.19,.21,.23,0,.45-.06,.67-.15,.81-1.12,1.61-.85,2.41,0,1.66,.88,3.27-.3,4.9-.16,.37-.16,.68-.4,.96-.69,.12,0,.24,.02,.37,.02,.32-.27,.37-.54,.32-.83,.13-.13,.27-.25,.41-.37,.28-.21,.67-.25,1.01-.37,.44,.05,.84-.04,1.11-.63,.03-.01,.05-.01,.08-.02,.15-.08,.29-.19,.43-.29,1.73,.99,3.51,1.01,5.35,.23,.99-.51,2.02-.58,3.06-.36,3.62,.77,7.27,1.2,10.96,.95,5.64-.21,11.28-.41,16.92-.62,.48,.04,.96,.07,1.44,.11,.82,.03,1.66-.01,2.42,.46,.97-.16,1.94-.32,2.91-.48l.18,.07s.19-.02,.19-.02c.79,.61,1.68,.53,2.57,.47,1.6-.12,3.2-.38,4.8-.34,1.45,.04,3.74,.22,3.53,2.03-.24,2.05,.55,1.43,1.29,1.43,.78,0,1.55-.15,2.33-.23-.02,.16,0,.31,.09,.47h0c1.29,1.11,2.6,1.08,3.91,.05,4.95-.64,9.99-.79,14.88-.8,5.06-.02,9.99-1.7,15.24-.48,5.74,1.33,11.79,.22,17.71,.06,1.75-.02,3.46-.46,5.23-.49,3.86-.07,7.74-.04,11.56-.96,2.25,1.03,4.49,1.49,6.99,1.19,3.17-.38,6.43-1.88,9.58,.24,2.61-.14,5.3,.63,7.79-.9-.05-.08-.1-.17-.15-.25,0,0,.02,0,.03-.02,.04,.09,.08,.18,.12,.27h0c.64,.02,1.31-.17,1.88,.36,4.19,.23,8.38-.63,12.56,.03,1.16,.12,2.27-.07,3.36-.52h7.79c0-.27,.01-.55,.02-.82-1.73-.97-3.65,.02-5.43-.35-.41,0-.83-.02-1.24-.03-.02-.12-.06-.26-.12-.41-5.06-1.34-10.24-.69-15.35-1.29-.43,0-.8,.14-1.11,.49-.04,.08-.04,.16-.06,.24-7.71-.43-15.43-.73-23.16-.57-.16-.01-.32-.03-.49-.04-.65-.41-1.3-.15-1.95-.02h0c-.11-.07-.23-.07-.35-.02-1.93-.94-3.97-.25-5.95-.54h0c-.44,0-.88,0-1.32,0-.86-.5-1.71-.64-2.56,.01h0l.02-.03s0,0,0,0h0c-4.64-.9-9.34-.14-14-.53-1.64-1.02-3.31,.01-4.97-.05-7.04-.26-14.08-.7-21.13-.44,.66,.71,1.49,.53,2.28,.53,6.5,0,13.01-.11,19.42,1.39,.59,.14,1.11,.22,1.53-.35,.83-1.13,1.85-.78,2.87-.49,.09,0,.19,0,.28,.01-.58,.37-.99,.98-1.39,1.6,0,.02,0,.04,0,.06-.28,0-.56,0-.83,0h0c-1.02-.13-2.32,.05-2.95,.42-1.56,.93-2.95-1.08-4.31,.14-.07,0-.13-.02-.2-.04-.04-.02-.08-.04-.12-.07-.09,0-.17,0-.26,0-.49-.12-.98-.28-1.54-.13-.14,.04-.28,.06-.42,.09-3.35-.02-6.7,.16-10.06,.21-2.6-.08-5.25-.31-7.87-.47-.39-.02-.67-.02-.81,.12-.69-.01-1.38-.18-2.05,.21-.2,.2-.43,.3-.66,.36-1-.87-2-1.52-3.47-.87-1.08,.47-.35,1.33-.46,1.92-.66,.13-1.34,0-2,.05-.23,0-.46,0-.68,.02-.27,0-.53,.07-.79,.15-.01-.34-.03-.67-.04-1.01h0c0-.18,.01-.37,.01-.55,.62,.21,.99,1.27,1.81,.75,.11-.07,.18-.51,.11-.66-.45-.86-1.09-1.2-1.95-.74-.13,.07-.3,.06-.46,.08-4.3-.16-8.61-.33-12.91-.49-1.33-.05-2.67,.57-4-.06-.81,0-1.62,0-2.42-.01-1.6,0-3.21,0-4.81,0h0c-.64-.8-1.29,.09-1.94,0h0c-4.27-.07-8.56-1.45-12.8-.1-1.47,.47-2.83-1.04-4.1-.12-2.08,1.52-3.7,.5-5.34-.87-.26-.91-1-.73-1.58-.95-.76-.28-1.32-.74-.83-1.81,.31-.16,.61-.32,.92-.49,.05-.15,.11-.31,.16-.46-.11-.32-.3-.56-.57-.72-1.73-.52-3.49-.16-5.23-.27-3.84,0-7.67-.02-11.51,.02-.9,0-1.88-.18-2.56,.76-.01,0-.03,0-.04,0-.03-.08-.04-.16-.1-.24-1.75-.95-3.57-.53-5.38-.35-.13,.04-.25,.09-.38,.13-5.36,.5-10.7,.15-16.04-.53-.27-.34-.56-.41-.86-.06-2.53-.03-5.06-.05-7.59-.08-.21-.11-.44-.15-.71,0-1.97,.03-3.95,.12-5.92,.09-1.8-.03-3.66,.62-5.37-.49,.1-.06,.22-.1,.31-.19,1.64-1.46,3.63-.35,5.39-.98,.19-.11,.36-.26,.5-.44,.08,.15,.19,.29,.33,.39,.92,.45,1.89,.25,2.84,.27,.28,0,.55-.04,.82-.12,.92-.44,1.88-.4,2.85-.4,3.78,0,7.56,.03,11.33-.03,.78-.01,1.7,.21,2.23-.54,.04,0,.09,.01,.13,.02,.13,0,.25,0,.38,0,.03,.17,.1,.34,.21,.5,.34,.28,.72,.4,1.13,.39,1.01-.27,2.03-.46,3.05-.28,2.39,.41,4.69-.06,7-.68,3.84-.28,7.37-2.73,11.34-2.09,.84-.54,1.73-.76,2.68-.57,2.47,.34,4.89-.88,7.38-.37,.54,.11,.97-.27,1.19-.87,.06,.06,.12,.11,.18,.18,4.54,.96,9.09,1.28,13.68,.52,.22,.22,.54,.33,.86,.43,2.63-.08,5.25,.49,7.89,.13,1.26-.08,2.51-.03,3.77-.05,1.06-.08,2.19,.22,3.1-.72,.07-.08,.12-.18,.18-.27,.45,.97,1.07,.76,1.77,.05,.46-.14,.92-.39,1.37-.39,8.59-.02,17.19,0,25.78,0,.16,.16,.35,.23,.57,.22,.12-.05,.22-.13,.3-.21,.7-.02,1.38-.41,2.09-.15,.33,0,.61-.17,.86-.4,.33-.03,.65-.07,.98-.1,.76,.58,1.36-.07,2.01-.33,0,0,0,.01,0,.02,.16,.08,.31,.17,.46,.3,.84,.74,1.83,.47,2.77,.57,.44,.05,1.1-.1,1.16,.61,.08,.86-.63,1.01-1.16,1.02-1.76,.04-3.5,.1-5.21,.62-.19-.03-.38-.06-.57-.09-.16-.14-.29-.29-.41-.45-2.19,.39-4.39,.31-6.59,.05-.89-.1-1.67,.24-1.8,1.34-.15,1.26,.74,1.47,1.57,1.56,.8,.09,1.6,.02,2.41,.05,2.87,.13,5.75-.09,8.59,.21,1.43,.15,2.67,.11,3.94-.55,.39-.1,.87-.31,1.17-.11,1.73,1.21,3.36,.18,5.02-.19,.68-.15,1.52-.33,.98-1.56-.14-.1-.28-.18-.43-.25,.07,.11,.12,.27,.13,.48-1.9,.46-3.37-1.45-5.25-1.22-.29,.04-.53-.39-.44-.8,.19-.86,.89-1.19,1.46-1.09,1.58,.28,3.13-.06,4.69-.11-.75,.68-1.67,.86-2.56,1.1,1.01-.04,1.89-.42,2.8-.34,.37-.02,.74-.05,1.11-.11,.13-.04,.27-.06,.41-.09-.24-.14-.48-.3-.71-.51-.05-.08-.1-.16-.16-.24,3.94-1.2,7.98-.85,11.98-.99,1.19-.04,2.38,0,3.57,0,.12,.15,.17,.3,.16,.47,0,.01,0,.02,0,.03,.08-.05,.16-.1,.23-.17,.08-.09,.12-.19,.15-.3,.09,.04,.18,.08,.28,.1,2.39-.99,4.86-.59,7.27-.35,2.1,.22,3.87-1.2,5.87-1.14,5.83,.17,11.63-.72,17.45-.59,.95,.02,1.95,.17,2.77-.63,.24-.19,.34-.43,.4-.7,.59,.03,1.18,0,1.78-.04,.35,.13,.7,.13,1.07-.05,.9-.02,1.78,.07,2.65,.52,1.19,.32,2.33,.33,3.29-.74,.03-.05,.05-.09,.08-.14,1.81,.67,2.71,.1,3.43-2.15,.3-.08,.6-.12,.9-.17,.6,.28,1.19,.38,1.78,.32-.04,.09-.09,.19-.13,.32,.46-.35,.92,.18,1.21-.58-.07,.05-.14,.06-.21,.06,.31-.12,.63-.28,.94-.48,1.23,0,2.45,.07,3.68,.23,.77,.02,1.53-.27,2.3-.13,.77-.14,1.51-.48,2.28-.58,.58,.11,1.16,.2,1.74,.25,.08,.01,.17,.03,.25,.02,.9,.04,1.8-.06,2.7-.53h0c.6-.51,1.03-1.07,.44-1.93-.23-.17-.49-.27-.77-.29-.03,0-.07,0-.11,0-1.03-.81-2.22-.15-3.35-.09-.77-.26-1.64-.16-2.33-.73-.76-.44-1.54-.83-2.36-1.09-.76-.16-1.51-.13-2.24,.2-.32,.28-.65,.46-.99,.59-.77-.09-1.51-.35-2.26-.57,.03-.11,.05-.22,.07-.35-.75-1.58-2.33-.7-3.35-1.48-1.47-.89-2.99,.02-4.47-.18-3.83-.51-7.6-1.65-11.49-1.59-.25-.04-.5-.05-.75-.02-.93,.03-1.85,.01-2.78,.01,.23-.3,.48-.58,.69-.89,.08,.03,.16,.06,.24,.11,.8,.16,1.62,.14,2.42,.25,.25-.02,.49-.03,.74-.03,1.59,.07,3.19,.04,4.78,.08,2,.05,3.97-.73,5.97-.2,1.06,.14,2.13,.13,3.14,.59,2.73-.02,5.54,.92,8.13,.37,2.95-.62,5.66-.72,8.44,.47,.92,.39,2.06,.69,2.83,.12,2.06-1.5,4.37-.98,6.55-1.37,1.5-.27,3.11-.45,4.54-.3,3.11,.31,6.23-.52,9.3,.37,3.12,.44,6.28-.08,9.4,.46,6.83-1.24,13.57-.06,20.36,.76,2.81,.34,5.72-.22,8.59,.15,.39,.05,.72-.36,1.02-.67,1.91-.45,3.88-.2,5.7,.17,5.14,1.02,10.27,1.91,15.51,1.56,.77,.62,1.67,.43,2.53,.57,4.47,.74,9.04,.43,13.48,1.6,3.54-.25,7.02,1.06,10.57,.62,2.87,.69,5.78,.5,8.68,.35,.34-.21,.89-.35,.97-.65,.15-.55-.46-.55-.76-.77-.42-.3-1.34,.1-1.25-.85,.09-.92,.91-.85,1.53-.89,.63-.04,1.26,0,1.92,0-.05-.95-1.54-.81-1.02-1.85,.35-.71,1.17-.23,1.77-.28,.24-.02,.48,0,.71,0,.06-.05,.09-.11,.13-.16,0,0,0,.01,.01,.02,0,0-.14,.14-.14,.14,3.52,.7,7.01,1.57,10.55,2.02,1.5,.19,2.57-.79,1.2-2.72,.36-.92,1.04-1.09,1.82-1h0c.03,.16,.04,.31,.05,.47,1.46,.62,3,.87,4.46,.34,1.74-.62,3.44-.61,5.18-.31,2.72,.36,5.44,.72,8.16,1.08,.37-.65-.17-.78-.47-1.05Zm-806.37-10.87c-.02-.07-.03-.15-.05-.24,.1,0,.21,.01,.31,.02-.08,.07-.17,.15-.25,.22Zm4.41-2.33c-.21-.46-.49-.83-1.04-.69-.51,.12-.49,.6-.27,1.06-1.32-.55-1.84-1.99-1.4-3.86h0s0,0,0,0h0c1-.09,1.97,.07,2.93,.33,.09,.19,.17,.38,.22,.58,0,.89-.55,1.68-.45,2.59Zm13.46,62.65c-.08-.04-.16-.07-.24-.1,.06-.03,.11-.06,.16-.11,.07-.07,.18,.09,.08,.2Zm15.49-9.44c-.38-.05-.76-.1-1.14-.18-.22-.05-.45-.08-.68-.06-.23,.02-.48,.05-.71,.12-.29-.08-.57-.23-.71-.72,1.15-.69,2.56-.77,3.24,.23,.22,.32,.17,.5,0,.62Zm3.84-97.92c-.1-.02-.19-.05-.29-.09-1.35-.15-2.76,.2-4.15-.5,.6-1.24,1.7-.57,2.31-1.21,0-.01,0-.02,0-.03,.01,0,.03,0,.04,0,.62,.22,1.25,.44,1.87,.66,.35,.17,.7,.3,1.06,.39,.69,.71,1.42,.67,2.16,.14,.02,0,.04,0,.06,0-.81,1.76-1.96,1.01-3.06,.65Zm27.42-5.16c-.52,.06-.98,.21-1.3,.64-.01-.01-.03-.02-.04-.03-.11-.11-.3-.13-.45-.16-1.13-.23-2.13,.17-3.09,.81-.03,.13-.05,.26-.07,.38-1.55-.38-3.17-1.47-4.54,.21-.65-1.17-1.62-1.83-2.76-2.21-2.85-.66-5.73-1.01-8.64-1.04-.78-.08-1.55,.14-2.46,.01,.75-.33,1.07-.99,1.48-1.53,.17-.15,.35-.28,.52-.42,.6-.09,1.2-.14,1.8-.16,.06,.04,.12,.07,.18,.12,.44,.53,.91,.51,1.39,.08,1.57-.4,3.13,.48,4.7,.19,.12,.01,.25,.02,.37,.04,.09-.07,.18-.14,.26-.21,.05,.13,.11,.26,.22,.42,1.12,1.12,2.51,1.27,3.87,1.15,2.84-.25,5.56,.3,8.23,1.33,.61,.08,1.31,.02,1.49,.75-.31-.35-.72-.39-1.16-.35Zm101.38,6.27s0,0,0,0c0,0,0,0,0,0h0Zm35.75-.75s.01-.02,.02-.03c0,0,.02,.01,.03,.02-.02,0-.03,0-.05,.01Zm63.33-.55c.04,.07,.05,.11,.03,.16-.05-.04-.1-.1-.16-.16,.04,0,.08,0,.12,0Zm19.03,99.1c-.25-.07-.51-.16-.76-.27-1.61-.51-3.23-.66-4.85-.08-.65,.18-1.32,.29-1.97,.43-.19,.09-.34,.22-.47,.39-.45-.02-.89-.05-1.34-.07-.6-.82-1.27-1.07-2.07-.36-.45,.1-.91,.2-1.36,.3-.11-.08-.19-.06-.27,0-.1-.12-.2-.24-.29-.38-1.06-.35-2.14-1-3.09-.22-.18-.1-.35-.21-.51-.35-.46-.23-.95-.28-1.43-.29,.02,.39-.37,.56-.58,.82-2.39-.02-4.79-.05-7.18-.07-.76-.48-1.03-.96,.05-1.31,.44-.14,.95,.08,1.37-.26v.02c.98,.07,1.94,.15,2.91,.22,1.87-.34,3.74-.79,5.4-.33,5.23,1.47,10.27,.08,15.39-.09,.04-.02,.06-.04,.1-.06,.31,.64,1.02,.81,1.65,1.08,.06,0,.12-.01,.18-.02,.05,.71-.43,.77-.86,.89Zm29.64,3.81c.81-1.46,1.98-.84,3.49-1.15-1.23,1.57-2.46,.98-3.49,1.15Zm211.44-.26s.01,.09,.02,.13c-.04,0-.07,0-.11,0,.03-.04,.06-.08,.09-.13Zm-28.56,.72s.01,.02,.01,.03h-.05s.02-.02,.03-.03Zm-98.13-102.32s-.02,.02-.03,.03c.01-.01,.02-.03,.03-.05v.02Zm69.17,69.27c.46,.18,.95,.18,1.44,.18-.5,.03-.99,.06-1.49,0-.46-.01-.92-.17-1.38-.07-.16,.05-.3,.13-.4,.24-.05-.02-.09-.03-.14-.05-.64-.23-1.29-.1-1.93-.04-1.19,.46-2.41,.73-3.62,1.09-1.22,.72-2.54,.17-3.8,.38,.23-.32,.38-.7,.3-1.22,.04-.13-.1-.22-.23-.32-.04-.13-.08-.27-.12-.4,.05-.04,.12-.09,.22-.15,.26,.02,.52,0,.78-.02,.19-.61,.9-.49,1.3-.79,.27-.2,.56-.37,.84-.55,.86,.07,1.71,.11,2.54-.29,.7-.34,1.23-.2,1.32,.82,.37,.42,1.22,.39,1.08,.11-.62-1.21-.48-1.73-.07-2,.6-.15,1.2-.24,1.83-.13,.23,0,.47,0,.7-.05,.03,0,.05-.01,.08-.02,.69,1.08,1.58,.81,2.55,0-.77,.9-2.48,.63-2.5,2.46,.15,.39,.4,.65,.73,.83Zm24.92-6.07c.2,.45,.53,.72,.88,.97-.23,.09-.46,.17-.7,.23-.12-.81-.49-.79-.93-.57,.25-.17,.5-.39,.75-.63Zm-12.4,.45s.01,0,.02-.01c-.04,.18-.08,.35-.09,.55,.54,.91,1.38,.79,2.18,.84,2.45,.15,4.79-.33,7.04-1.46,.08-.07,.14-.15,.21-.22,.63,.86,1.25,.99,1.87,.72-.05,.03-.1,.06-.15,.09,.13,.2,.29,.31,.45,.4-.21,.03-.42,.06-.62,.15-.51,.3-1.22,.47-1.7,.83-.97,.1-1.94,.2-2.92,.3-.3-.19-.49-.36-.61-.51-.69,.07-1.38-.03-2.07-.13-.24,.02-.47,.07-.69,.16-1.18,.45-2.49-.56-3.66,0-.08-1.08-.65-1.76-1.76-2,.82-.63,1.65-.59,2.5,.29Zm-6.04,13.16c-.4,.04-.87-.18-.91-.65,0-.07,0-.11,0-.17,.53-.46,1.14-.74,1.73-1.08,.11,.17,.24,.33,.26,.51,.09,.89-.38,1.32-1.08,1.39Zm33.06-7.93c-1.04,.21-2.06,.71-3.16,.58-.48,.01-.96,0-1.44,.01-1.81-.12-3.59,.12-5.35,.59-.37,.04-.73,.15-1.03,.43-.08,.17-.13,.32-.18,.48-2.37-.85-4.68-.63-6.94,.5-.2,.2-.34,.44-.43,.73,0,.07,.02,.11,.03,.17-.45-.49-1-.72-1.62-.64-2.69,.32-5.34,.26-7.97-.58-1.45,.09-2.87-.21-4.31-.26-.26-.08-.52-.04-.77,0,.87-1.03,.05-2.05-.1-3.42,.18,1,.4,1.69,1.01,1.77,1.87,.25,3.71,1.22,5.62,.61,1.34-.43,2.65-.43,3.99-.19,.36,.04,.71,0,1.06-.11,1.12-.21,2.19,.08,3.27,.34,1.14,.05,2.21-.53,3.35-.41,.25,0,.51,0,.76,0,1.03,.09,2.07,0,3.1,0,.21,0,.42,0,.63,0,.03-.26,.13-.51,.32-.74,.37,.05,.74,.07,1.11,.1,1.37,.46,2.75,.11,4.13,0,1.66-.68,3.35-.56,5.07-.3,.04,.18-.03,.3-.16,.36Zm13.57,5.82s0,0,0-.01c0,0,0,0,.01,.01h-.01Zm19.81-8.82c-4.06,1.61-8.24,1.11-12.39,.92-.96-.05-1.91-.27-2.87-.07,.21-.59,.67-.8,1.15-.97,.57-.24,1.27-.16,1.76-.57,1.21-.05,2.42-.1,3.62-.15,2.43,.04,4.87-.11,7.3,.12,.24,.06,.47,.12,.72,.17,.23,.12,.62-.24,.72,.24-.02,.07-.05,.15-.11,.24l.09,.08Zm2.91-.05c1.13-.82,2.25-.8,3.37,.04-1.12-.01-2.25-.03-3.37-.04Zm21.34,.86s-.02,.03-.03,.05c-1.47,.19-2.94,.46-4.41-.01-1.63-.04-3.26-.01-4.89-.02-.47,0-.93,0-1.4,.05-.53,.09-1.05,.21-1.59,.16-.55,.14-.83-.19-1.08-.56,.47,.46,1.05,.58,1.54,.2,1.5-1.18,3.14-.99,4.79-1.03,.34,0,.64-.12,.89-.36,.06,.05,.11,.11,.17,.16,.41,.26,.81,.54,1.26,.68,.7,.16,1.42,.11,2.13,.13,.35,0,.69,0,1.04,0,.09,0,.18-.01,.26-.02,.34,.45,.96,.29,1.5,.31,.06,0,.13,0,.19,0-.13,.07-.25,.15-.37,.26Zm6.4,.5c-.12,0-.26-.11-.43-.41-1.24-1.12-2.7-.45-4.06-.62-.34,.02-.68,.01-1,.07-.16-.11-.32-.23-.48-.34,1.75,.15,3.44-.68,5.22-.33,1.22,.24,1.36,.78,.76,1.64Zm18.65,2.55c-1.3-1.04-2.54-1.42-3.65,.05-.13-.12-.27-.23-.41-.32,.43-.32,1.03-.52,.65-1.41,1.08,.01,2.17,0,3.26,.04,.44,.01,1.09-.17,1.21,.46,.15,.8-.8,.65-1.05,1.18Zm117.79-53.96c-.28-.08-.68-.06-.68-.46,0-.35,.43-.38,.65-.59,.02-.03,.05-.06,.07-.09,.01-.01,.02-.03,.03-.04,.03-.04,.06-.07,.09-.11,.05,.12,.11,.24,.21,.38,.98,.87,2.13,.99,3.31,.94,1.31,.05,2.64-.12,3.93,.18-.18,.18-.32,.39-.35,.67-.08-.12-.19-.16-.34-.06-1.43-.11-2.86-.21-4.29-.32-.83-.38-1.72-.49-2.64-.48Zm3.91,5.35c1.6-1.89,3.51-1.51,5.45-1.23-.02,1.36-.94,1.29-1.49,1.7-1.33-.04-2.72,.56-3.95-.47Zm34.15,35.34c1.61-.04,2.83-.38,3.59,1.26-1.1-.38-2.36,.27-3.59-1.26Zm13.21,.95c-.1-.16-.21-.3-.36-.4-.84-.38-1.7-.1-2.55-.1-1.33,0-2.61-.23-3.32-1.49,.6,.17,1.22,.17,1.84,.15,.11-.03,.22-.04,.33-.06,1.41,.62,2.94,.12,4.38,.4,.15,.25,.31,.48,.53,.66,.55,.4,1.08,.46,1.59-.06-.04,.42,.2,.69,.5,.97-.98-.44-1.97-1.11-2.94-.07Zm7.8-8.07s.05-.01,.08-.02c.01,.03,.03,.06,.05,.09-.04-.02-.08-.04-.12-.07Zm6.71,1.17s0,0,0,0c0,0,.15-.2,.15-.2-.05,.07-.09,.14-.14,.21Z"/><path class="cls-2" d="M204.72,548.83c1.61-.27,3.42-.19,3.9-2.65-.63-2.53-2.05-2.53-3.78-1.56-1.35,.72-1.19,2.11-1.14,3.44,.03,.76,.55,.85,1.02,.77Z"/><path class="cls-2" d="M201.17,667.14c-2.07,.04-3.96-1.47-6.07-.87,.17,.06,.35,.11,.53,.17-.18-.04-.35-.09-.53-.17-.15,.02-.29,0-.43-.04-.56-.71-1.24-.76-1.98-.44-2.21-.44-4.42-.88-6.63-1.31h0c-1.56-.84-3.18-.41-5.47-.52,1.11,.61,1.58,.86,2.04,1.11,.28,.05,.57,.1,.85,.14,3.73,.89,7.46,1.77,11.19,2.65,.92,.52,1.94,.33,2.91,.55h.24l.24,.04c1.02,.99,2.25,.37,3.37,.56,1.74-.97,.27-1.89-.26-1.88Z"/><path class="cls-2" d="M182.57,655.75c.41-.11,1.1,.14,1.1-.58,0-.7-.7-.47-1.11-.61-.8-.56-1.57-.08-2.35,.11,.31,.18,.61,.35,.92,.53,.31,.75,.74,1.1,1.43,.56Z"/><path class="cls-2" d="M177.28,628.61c-.65-.39-1.29-.77-1.94-1.16-.16,.03-.32,.05-.49,.08,.52,1.2,1.48,1.13,2.42,1.08Z"/><path class="cls-2" d="M947.68,583.88c-.17,0-.33,0-.5-.01-3.68,.23-7.36,.61-11.06,.41-.58,.22-1.32-.16-1.76,.58-.21,.36-.08,.91,.18,.93,1.35,.11,2.43,1.88,3.95,.83,.47,0,.95,0,1.42,0h0c.73,.65,1.5,.72,2.44,.6,1.77-.23,3.6-.46,5.32,.46l.24,.03h.24c2.41-.02,4.81-.04,7.22-.05,.02-.16,.03-.33,.05-.49,2.17-1.46,4.83-1.22,7.7-2.94-2.47,.42-4.18-.09-5.91-.26-1.87-.19-3.85-.57-5.7,.37l.02,.05c-1.29-.11-2.52-.78-3.85-.51h0s0,0,0,0Z"/><path class="cls-2" d="M961.66,573.84c-.3-1.36-.7-1.44-2.41-.51,.7,.8,1.59,.45,2.41,.51Z"/><path class="cls-2" d="M966.52,650.75c-.48,0-.97,0-1.45,0,1.9,.58,3.8,1.31,5.8,.55-.32-.18-.65-.36-.97-.54-1.12-.65-2.25-1.32-3.37-.01Z"/><path class="cls-2" d="M951.05,646.88c-2.25,.27-4.51-.55-6.76,.02,.36,1.51,1.13,1.11,1.93,.54h1.45c.32,.32,.64,.34,.97,0,1.76,1.53,3.97,0,5.8,1.1,.04,.32,.2,.51,.48,.55,1.96,.4,2.22-1.15,2.42-2.76-2.07,.59-4.13,1.26-6.29,.55Z"/><path class="cls-2" d="M958.28,643.04c.01,.17,.02,.35,.03,.52,.96,0,1.93,0,2.89,0-.88-.84-1.93-.48-2.92-.52Z"/><polygon class="cls-2" points="958.31 643.56 958.31 643.56 958.31 643.56 958.31 643.56"/><path class="cls-2" d="M958.76,639.17h0s0,0,0,0c-2.73,0-5.47-.01-8.2-.02-1.07,.96-2.33,.37-3.5,.54-1.3,.19-2.66-.3-3.94,.15-.82-.07-1.65-.18-2.47-.35-1.08-.57-2.27-.62-3.41-.9-.24-.04-.46-.13-.67-.27-.11-.17-.18-.35-.23-.52-1.35-1.29-2.97-1.27-4.62-1.15-1.18,.21-2.57-.53-3.47,.98,.16,1.17,1.18,.35,1.6,.91,2.76,.02,5.45,.68,8.15,1.16,.74,.64,1.7-.11,2.44,.53,.64,0,1.28,0,1.91,.01,2.66,.83,5.4,.88,8.12,1.23h0c.06,.13,.1,.27,.12,.42,.47,0,.94,.01,1.41,.02,.5-.03,1-.05,1.5-.08-.71-1.88-1.83-.99-2.89-.58h0c-.31-.23-.63-.46-.96-.7,3.01-1.34,6.11-.59,9.13-.9h0c.13,.19,.28,.2,.45,.06,.81,0,1.62,0,2.43-.01-.16-.19-.32-.38-.47-.56-.81,.01-1.63,.02-2.44,.03Z"/><path class="cls-2" d="M929.78,618.12c.92,1.1,2.19,1.28,3.39,1.65-.8-1.44-2.04-1.69-3.39-1.65Z"/><path class="cls-2" d="M949.6,620.89c-.64,0-1.28,0-1.93,0,.11,.94,.68,1.12,1.38,1.09,.7-.03,.73-.5,.55-1.1Z"/><path class="cls-2" d="M933.65,619.78c0,.17,.01,.34,.03,.52,.8,0,1.6,.02,2.4,.03-.7-.8-1.6-.47-2.42-.54Z"/><path class="cls-2" d="M966.4,614.22c-2.52-2.6-5.15-1.27-7.5-1.74-.58,.68,.28,.77,.37,1.17l-.02,.12c.4,.47,.93,.47,1.45,.49,.5-.01,1-.03,1.5-.04,0,0,0,0,0,0h0c1.24,0,2.48,0,4.19,0Z"/><path class="cls-2" d="M928.17,620.73c-.31,1.15,.72,1.16,1.42,1.23,2,.21,4,.4,5.99,.59,1.78,.34,3.65-.51,5.39,.49l.2-.02h.2c.27-.19,.72-.34,.76-.58,.14-.8-.57-.6-.91-.74-2.62-1.13-5.51-.16-8.13-1.33-1.06,.04-2.03-.21-3.01-.77-.86-.49-1.73,.42-1.92,1.13Z"/><path class="cls-2" d="M956.37,613.69c.79,.78,1.59,.72,2.42,.08-.8-.29-1.59-.75-2.42-.08Z"/><path class="cls-2" d="M271.12,535.17c1.97,.71,4-.65,5.95,.33,.59,.3,1.27,.4,1.81-.17,.33-.35,.35-.84,.11-1.26-.43-.76-1.13-.55-1.75-.56-2.09-.03-4.12,.82-6.22,.53-.32,0-.64,0-.96,.01-.38,1.29,.48,.91,1.05,1.12Z"/><path class="cls-2" d="M966.44,601.24c3.13-.47,6.13,1.77,9.27,.27-2.31-1.15-4.9,.02-7.21-1.11-.7,.15-1.54-.27-2.06,.84Z"/><path class="cls-2" d="M962.62,598.15c.64,.02,1.41,.22,1-1.06-.47-.19-.95-.38-1.42-.57-.83,.87,.21,1.11,.43,1.63Z"/><path class="cls-2" d="M206.87,664.6c-2.79-.37-5.58-.74-8.37-1.11-.46-.03-.93-.06-1.39-.08-.96-.18-1.92-.35-2.88-.53-.18-.18-.39-.29-.63-.33-.2,.04-.41,.07-.62,.1-1.86-.83-3.72-1.66-5.58-2.49h0c-1.01-.12-2.02-1.06-3.29,.14,2.67,1.19,5.03,2.56,7.64,3.21,1.31,1.19,3.08-.16,4.38,1.05,.32,.02,.64,.04,.95,.06h0c.22,.26,.43,.75,.66,.76,3.08,.1,6.16,.19,9.22,.76,.4,.07,.85-.21,.9-.73,.09-.82-.52-.75-.98-.81Z"/><path class="cls-2" d="M206.74,660.75c.82-.12,1.73,.22,2.42-.58h0c-2.9-.55-5.8-1.1-8.7-1.65-4.46-.48-8.81-1.72-13.22-2.53-.88-.16-1.95-1.18-2.72,.31,.15,.01,.31,.03,.46,.06,1.07,.68,1.9,1.48,3.42,1.41,2.24-.1,4.51,.81,6.76,1.29,.97,.19,1.93,.38,2.9,.57,2.5-.34,4.78,1.27,7.26,1.12h.24s.24,0,.24,0c1.69,2.12,3.88,.64,5.8,1.07-1.46-1.3-3.38,.18-4.85-1.06Z"/><path class="cls-2" d="M864.77,547.35c.66-.24,1.26-.59,1.7-1.08-1.15-.04-2.29-.07-3.44-.11-.45,0-.89,0-1.34,0-.82,.04-1.64,.08-2.45,.11,.44,.56,1.12,.94,1.89,1.16,0-.04,0-.06,.02-.11,1.2,.14,2.44-.22,3.63,0Z"/><path class="cls-2" d="M873.74,549.07h0c-2.73-.07-5.46-.14-8.19-.21-.05,.08-.1,.15-.15,.23-2.35-.06-4.7-.12-7.04-.18-.05-.14-.11-.28-.15-.42-.3-.02-.61-.03-.91-.05-2.78-.61-5.58-.14-8.37-.27-.11,.1-.25,.17-.39,.22-.29-.26-.6-.25-.92-.02-1.94,.02-3.87,.04-5.81,.06,.05,.34,.1,.67,.15,1.01,1.51,.2,3.01,.39,4.52,.58,0,.01,0,.02,0,.03,1.39,1.9,3.17,.99,4.84,.87,1.88,.12,3.79-.31,5.65,.27,.23,.08,.46,.15,.7,.17,.49,.07,.95,.03,1.37-.17,.15,.16,.31,.31,.48,.43,.21,.12,.42,.22,.65,.28,.44,.14,.86,.14,1.26,.07-.6-.12-1.18-.38-1.71-.83,1.82,.6,3.4-1.56,5.25-.59,0,0,0,.02,0,.03-.15,.2-.32,.39-.49,.55,.09,0,.18-.02,.27-.02,.18-.08,.32-.22,.46-.36,.5,.3,.91,.09,1.3-.24,.16,.08,.32,.16,.47,.26,.94,.5,1.89,.72,2.89,.26,.21-.06,.42-.12,.63-.17,.63-.26,1.31-.04,1.94-.27,.08-.05,.17-.09,.26-.13,.67,.46,1.33,.35,1.98-.42,.01-.01,.02-.02,.03-.03,.04,.09,.07,.18,.14,.29,.61,.08,1.22,.2,1.79-.19,1.74,.16,3.49,.65,5.22-.01,.04,.08,.08,.16,.14,.24,.82,.63,1.59,.57,2.31-.21,.04-.01,.09-.01,.13-.02-.05,.08-.11,.16-.16,.26,1.91,1.58,3.88,.95,5.86,.25,0,0,.02-.01,.02-.02,.52,.69,1.42-.03,1.96,.57,1.28,.69,2.56-.34,3.84,.01,2.85-1.47,5.91,1.07,9.43-.7-4.34-1.06-8.1-.74-11.83-.96-1.93-.08-3.85-.41-5.78-.05-1.46-.17-2.93-.34-4.39-.5-.47,.03-.94,.06-1.41,.09h0s0,0,0,0c-1.16-.05-2.32-.09-3.47-.14-.15-.19-.29-.18-.44,0-.8,.57-1.64-.19-2.45,.09h0c-.63,.02-1.25,.04-1.88,.06Zm-22.19,1.51c-.04-.16-.06-.31-.07-.48,1.92,.47,3.95-.65,5.83,.51-1.92-.01-3.84-.02-5.76-.04Z"/><path class="cls-2" d="M868.39,547.34c.69,.65,1.4,.71,2.48-.09-.86-.18-1.45-.3-2.04-.43-.15,.17-.3,.34-.45,.51Z"/><path class="cls-2" d="M873.98,547.79c.57-.47-.28-.64-.25-1.04-.34,.16-.88,.19-.59,.82,.09,.2,.67,.35,.84,.22Z"/><polygon class="cls-2" points="873.73 546.75 873.73 546.75 873.74 546.75 873.73 546.75"/><polygon class="cls-2" points="950.07 597.12 950.07 597.12 950.06 597.12 950.07 597.12"/><path class="cls-2" d="M925.98,583.23c.85,.87,1.9,.38,2.85,.56,.4-.36,.07-.69-.04-1.02-.46-.04-.91-.07-1.37-.1-.51,.08-1.08-.02-1.44,.57Z"/><path class="cls-2" d="M927.82,571.08c-1.44-1.26-3.25-.48-4.81-1.12,1.3,2.07,3.2,.78,4.81,1.12Z"/><path class="cls-2" d="M935.1,648c-.8,.18-1.61,.36-2.41,.55,1.17,1.92,1.88,1.2,2.41-.55Z"/><path class="cls-2" d="M893.99,628.61c2.25,.62,4.58,.16,6.9,.84,1.05,.31,2.9,.94,4.24-.26-2.7-.37-5.39-.85-8.1-1.06-.98-.08-2.23-1.22-3.04,.48Z"/><path class="cls-2" d="M893.57,628.61c-.66-.83-1.51-1.08-2.45-1.09-.48,.32-.97,.31-1.45,.01,.94,2.07,2.6,.7,3.9,1.07Z"/><path class="cls-2" d="M935.1,645.79c-1.02,1.36-3.1-.55-3.85,1.64,2.72,.04,5.45,.12,8.5-.49-1.66-1.47-3.19-1.08-4.64-1.15Z"/><path class="cls-2" d="M343.51,539.01c-.86-.89-1.92-.42-2.89-.54h0c-1.14-.14-2.3,.26-3.43-.49-.77-.51-.78,.48-.92,1.04,1.45,0,2.9,0,4.35,0,.96,0,1.93,0,2.89-.01Z"/><path class="cls-2" d="M225.16,661.87c-.01,.35-.02,.7-.04,1.04,.64,0,1.28,.02,1.92,.02,.8-.13,1.68,.28,2.7-.57-1.66-.88-3.14-.5-4.58-.5Z"/><path class="cls-2" d="M726.31,537.92c-.8,.21-1.82-.87-2.42,.53,.83-.06,1.72,.28,2.42-.53Z"/><path class="cls-2" d="M803.62,538.97c-.91-.53-1.78-1.48-2.89-.48,.88,.82,1.91,.41,2.89,.48Z"/><path class="cls-2" d="M798.33,538.48c-1.29,0-2.59,0-3.88,0,1.29,.78,2.59,.79,3.88,0Z"/><path class="cls-2" d="M793.5,538.48h-3.88c1.29,.79,2.59,.79,3.88,0Z"/><path class="cls-2" d="M840.34,541.26c.04,.15,.08,.3,.09,.46,1.42,.05,2.85,.09,4.27,.14,8.04,.7,16.09,1.42,24.15,.32-5.54-.97-11.09-1.53-16.68-1.57-.12-.13-.24-.27-.36-.4-3.66-.01-7.33-.07-10.96-.65-.5-.36-.95-.26-1.15,.35-.21,.64-.19,1.28,.64,1.35Zm0-.02s0,0,0,.01c0,0,0,0-.01,0,0,0,0,0,0-.01Z"/><path class="cls-2" d="M848.54,546.86h0c2.88-.34,5.82,.47,8.67-.58-3.35-.38-6.69-.75-10.04-1.13h-.01c-1.34,1.01-2.97-.07-4.54,.86,1.98,1.39,4.02,.56,5.92,.85Z"/><path class="cls-2" d="M909.57,572.16c1.61,.11,3.19,.73,4.83,.39,.59-.12,.95-.22,.42-.93-1.74,.33-3.57-.55-5.25,.54Z"/><path class="cls-2" d="M907.06,631.41c0,.18,0,.36,0,.54h0c2.53,.97,5.15,.4,7.73,.57v-.03c-2.49-1.2-5.23-.02-7.74-1.08Z"/><path class="cls-2" d="M925.46,634.18c-1.57,.77-3.31-.42-4.86,.53-1,.33-2.02,.61-2.87-.34-.79-.89-1.61-.35-2.43-.23l-.02,.04c.85,2.84,2.94,2.32,4.83,2.33,.25-.09,.48-.24,.67-.45,.1-.14,.17-.29,.22-.45,.02,.02,.03,.04,.05,.06,.97,.59,2.09,.34,3.1,.73,.11,0,.21-.01,.32-.02,.51,.06,1.25,.39,1.48,.12,.5-.56-.5-.91-.46-1.54,.02-.26-.02-.52-.03-.78Z"/><path class="cls-2" d="M901.27,635.84c1.13,0,2.26-.02,3.38-.02-.7-.8-1.6-.46-2.43-.56-1.13,.01-2.25,.03-3.38,.04,.71,.77,1.6,.45,2.42,.54Z"/><path class="cls-2" d="M912.87,640.8c.32,.18,.64,.37,.97,.55,.49-.19,.97-.38,1.46-.56-.82-1.65-1.62-1.67-2.42,.01Z"/><path class="cls-2" d="M906.58,640.25c1.7,1.11,3.55,.3,5.32,.56,.16,0,.32-.01,.48-.02-1.87-1.1-3.88-.28-5.81-.54Z"/><path class="cls-2" d="M904.75,618.66c-.6,.17-1.41-.12-1.07,1.13,3.96-.65,7.91,.08,11.86,.37-3.52-1.42-7.05-2.59-10.8-1.5Z"/><path class="cls-2" d="M881.44,621.35c-1.11,.06-2.23,.05-3.34,.07h0c-.17-.18-.34-.35-.51-.53-.32-.33-.63-.28-.92,.05-.92,.92-2.44,.12-3.27,1.46,.77,.33,1.66-.09,2.27,.69,.8-.18,1.6-.37,2.39-.55,1.31-.06,2.6,.12,3.86,.56,.24-.44,.9-.66,.74-1.31-.18-.7-.74-.46-1.22-.43Z"/><path class="cls-2" d="M433.91,545.12c.16,0,.32,0,.48-.01,.97,0,1.93,0,2.9,0,0-.09,.01-.18,.02-.27,.02,0,.04,0,.06,0,.62-.09,1.28,.23,1.85-.3-1.15-1.01-2.49-1.12-3.86-1.09-1.18-.15-2.36-1.15-3.57-.06,.4,1.22,1.6,.92,2.12,1.74Z"/><path class="cls-2" d="M815.4,649.29c-.09,0-.25,.43-.2,.6,.19,.7,.67,.89,1.54,.74-.35-.75-.58-1.42-1.34-1.34Z"/><path class="cls-2" d="M291.34,669.58c1.02,.45,1.71,.77,2.41,1.08,.16,0,.32,0,.48,0,.61-.38,1.36-.05,1.94-.53,.15,0,.3-.02,.46-.03,.16-.19,.32-.37,.47-.56-1.81-1.16-3.62-1.49-5.76,.03Z"/><path class="cls-2" d="M265.11,670.73c-.91,.04-1.25,.59-.85,1.6,.64,0,1.28,0,1.92,0,.47-1.26-.13-1.64-1.08-1.6Z"/><path class="cls-2" d="M303.89,667.91c-.05,0-.1,0-.15,0-1.61,1.84-3.68,1.21-5.65,1.1,0,0,0,0,0,0h0c3.23,2.54,6.36,.48,10.1-.3-1.65-.35-2.73-.58-3.81-.81-.16,0-.32,0-.48,0Z"/><path class="cls-2" d="M289.14,669.59c-.91,.1-2.55-1.78-2.62,1.06,.96,0,1.91,.01,2.87,.02,.3-.49,.95-1.21-.25-1.08Z"/><path class="cls-2" d="M262.81,663.99c-.86,.16-1.78-.13-2.6,.3-.94,0-1.92,.18-2.77-.32-2.56-.73-5.12-.73-7.68,.06-3.73,1.22-7.61,.07-11.62,.76,.79,.5,1.53,.23,1.97,.89,.32,.02,.63,.04,.95,.06,.26-.4,.63-.59,1.04-.56,2.86,.22,5.72-.11,8.58-.14,.27,.17,.55,.37,.61,.71,.11,.12,.21,.13,.32,.04,0-.01,0-.02,0-.04-.03-.22,.24-.43,.43-.59,1.89-.55,3.8-.56,5.71-.44,1.48,.88,3.09,.17,4.62,.44,.3-.02,.6-.04,.9-.06,1.46,.02,2.92,.03,4.39,.05,.81-.19,1.61-.38,2.42-.56-.39-.56-.94-.55-1.49-.58-1.92,0-3.85-.01-5.77-.02Z"/><path class="cls-2" d="M251.21,670.67c.16,.19,.32,.37,.49,.56,.41-.1,1.24,.03,1.07-.52-.28-.87-1.01,.1-1.55-.04Z"/><path class="cls-2" d="M834.13,544.87c-1.83,.31-3.52-.17-5.13-1.11v.02c-.74,.16-1.47,.39-2.15,.8-1,.17-2.07-.31-3,.48h0c-1.88-.48-3.8-.51-5.71-.49-1.35,.81-2.86,.69-4.22,.39-2.08-.46-4.12-.11-6.17-.18-.4-.01-.88-.13-.98,.44-.14,.78,.44,.78,.91,.9,2.07,.54,7.61,.87,7.85,1.17,2.42,.42,3.63,.94,6.08,.21,.06-.03,4.55,1.1,6.81-.12,.56-.3,1.18-.44,1.78-.66,.77,1.89,2.28,1.96,3.79,2.01,.55,.05,1.07-.06,1.57-.34,.57-.38,1-.88,1.11-1.65,1.4,0,2.79,.01,4.19,.02-.16-1.73-1.34-1.53-2.37-1.63-.88,.54-1.76,.66-2.64,.55-.61-.22-1.37-.16-1.73-.84Z"/><path class="cls-2" d="M802.24,545.71c.65,.31,1.09,.04,1.37-.66,0-.35,.02-.69,.03-1.04-.16-.04-.32-.05-.48-.02q-1.68,1.07-.92,1.72Z"/><path class="cls-2" d="M874.75,631.33h0c-.95-.73-2.03-.38-3.05-.48-3.34-.32-6.74,.45-10.05-.58-1.96,.24-4.02-.86-6.21,.62,2,1.15,4.06-.21,5.73,1.04,1.77,0,3.55,0,5.32,0,3.38,.19,6.74,.9,10.14,.6,0-.37-.01-.74-.02-1.12-.62-.03-1.24-.05-1.86-.08Z"/><path class="cls-2" d="M896.74,632.52c-3.15,.2-6.27-1.16-9.44,.03,2.76,.06,5.24,1.64,7.96,1.62,.55,0,1.12-.06,1.65-.24,.22-.08,.45-.52,.49-.83,.07-.5-.37-.59-.65-.57Z"/><path class="cls-2" d="M900.3,638.04c-.44,.28-.87,.57-1.44,.94h6.24c-1.54-.61-2.6-.06-3.35-.93-.49,0-.97,0-1.46,0Z"/><path class="cls-2" d="M888.69,636.39c.16,.18,.33,.36,.49,.54,1.77,.09,3.55,1.32,5.32,0-1.97,.34-3.85-.69-5.81-.53Z"/><path class="cls-2" d="M890.15,609.78c-.55,.83-.06,1.29,.48,1.73,2.93,1.39,6.1,1.04,9.13,1.72,.8,.46,1.72-.08,2.52,.4,1.42,0,2.83,.02,4.25,.03,.63-.34,.74-.7,.29-1.44-1.07-1.75-2.75-1-4.12-1.49-1.67-.39-3.37,.57-5.02-.19-1.21-.12-2.46,.76-3.64-.18h0c-.16-.19-.32-.38-.48-.57-.66,.03-1.32,.07-1.97,.1h0s0,0,0,0c-.48-.03-.96-.06-1.44-.09Z"/><path class="cls-2" d="M879.53,610.94c-.54-1.11-1.36-1.24-2.5-.97,.45,.39,.74,.66,1.04,.92,.49,.02,.97,.03,1.46,.05Z"/><path class="cls-2" d="M913.81,612.61c1.54,.6,2.97,.05,4.4-.53-1.5-.15-2.97,0-4.4,.53Z"/><path class="cls-2" d="M870.98,621.83c-.37,.08-.75,.11-1.13,.16h0c-1.29,0-2.58,0-3.86,0,.94,1.12,2.45-.04,3.39,1.1,.49,0,.97-.02,1.46-.03,.15,0,.31,.01,.46,.03,.36-.29,.93-.51,.68-1.16-.19-.52-.65-.19-1-.12Z"/><path class="cls-2" d="M441.25,543.73c.29-.23,.12-.59-.11-.85-.53,.01-1.06,.07-1.47,.52,.46,.56,1,.77,1.58,.33Z"/><path class="cls-2" d="M458.69,678.43c-2.32,.15-4.61-.18-6.9-.57-.83,.68-1.67,.04-2.5,.03-.91,0-1.88,.02-1.36,1.63,4.19,.56,8.38,.84,12.56,0-.39-.82-1.02-1.14-1.79-1.09Z"/><path class="cls-2" d="M441.2,678.03c-1.46-.22-2.96-.53-4.89,.45,1.46,.45,2.43,.75,3.4,1.05,.64,0,1.28,0,1.93,0,.25-.65,.3-1.38-.43-1.49Z"/><path class="cls-2" d="M707.82,658.51c-1.23-.25-2.58-.83-3.26,1.1,.49,0,.98,0,1.47,0,2.57,.56,5.15,.43,7.72-.01h0c-1.78-1.7-3.95-.7-5.92-1.1Z"/><path class="cls-2" d="M755.79,652.97c-.83,.04-1.72-.13-2.48,.96h5.46c-1.15-.72-2.25,0-2.98-.96h0Z"/><path class="cls-2" d="M805.1,646.87l-.02,.03c-.27,.28-.73,.46-.49,1.04-.04-.08-.09-.17-.13-.25-1.42-.97-2.98-.38-4.47-.48-.6-.04-1.1,.02-1.12-.86-.9-1.13-2.03-.85-3.14-.6-2.17,.47-4.39,.29-6.58,.6h0s0,0,0,0c-.81-1.29-1.61-.57-2.41,.01,0,.08,0,.15,0,.23,.08,.03,.15,.03,.23,.07,1.14,1.2,2.41,1.38,3.97,1.25,4.07-.34,8.16-.28,12.24-.02,.4,.19,.82,.29,1.24,.35,.07-.06,.15-.12,.22-.21h0c.48,0,.96-.01,1.44-.02,.32-.37,.65-.75,.97-1.12-.64-1.75-1.29-.71-1.93,0Z"/><path class="cls-2" d="M325.63,666.77c-.48-.36-.96-.48-1.43,.03,.01,1.09,.88,.78,1.36,1.1,.49,.33,1.11,.82,1.32-.08,.25-1.08-.66-.95-1.25-1.05Z"/><path class="cls-2" d="M321.29,667.9c-.34,.17-.98,.46-.97,.5,.26,.84,1.06,.08,1.46,.61,.45-.45,1.26-.24,1.52-1.07-.69-.9-1.35,.05-2.01-.04Z"/><path class="cls-2" d="M333.37,664.02c-.15,.01-.3,.02-.45,.03-.68,.17-.81,.62-.15,.89,.63,.25,1.36,.15,2.05,.2-.16-.09-.33-.19-.49-.28,.2,.01,.37,.08,.49,.28h0c.64-.18,1.29-.37,1.93-.55-1.03-1.01-2.26-.38-3.39-.56Z"/><path class="cls-2" d="M314.53,669.56c.16,0,.32,0,.48,0,.32-.74,1.42-.2,1.6-1.24-2.07-.34-2.35-.17-2.08,1.24Z"/><path class="cls-2" d="M649.95,541.24c.93-.21,1.81-.31,2.81-.21,3.74,.35,7.5,.35,11.23-.37,1.56,.96,3.14-.08,4.71,.02,4.12,.25,8.24,.44,12.36,.57,1.08,.03,2.25,.38,3.24-.52h0c.14-.03,.29-.05,.43-.06,3.23,1.1,6.46,.4,9.68,0,.8,.03,1.6,.06,2.4,.08,3.83,.12,7.65-.15,11.48,0,.05,0,.11-.12,.17-.19-.05-.18-.12-.31-.2-.42h.11c.08,.08,.15,.18,.22,.31,.85,.57,1.72,1.34,2.47,.3,.03,0,.06,0,.09-.01,.53-.18,1.07-.27,1.61-.05,.57,.04,1.13,.03,1.7,0,.54,.07,1.09,.05,1.64-.04,.32,0,.63,0,.95,.01,.25,0,.5,0,.75,0,.24,0,.48-.01,.71-.03,.1-.04,.2-.05,.3-.08,.63,.23,1.25,.27,1.88,.04,.17,.03,.33,.06,.5,.08,.23,0,.47,0,.7,0,.75,0,1.5,.01,2.24,0,.42-.08,.85-.13,1.27-.18,1.27,.18,2.55,.1,3.82-.07,.68,.05,1.36,.12,2.04,.22,2.05,.02,4.11,.59,6.17,0h0c1.76,.74,3.53,1.21,5.29,0-.09-.2-.2-.35-.31-.47h.26c.07,.05,.14,.09,.2,.16,.45,.44,.98,.35,1.5,.27,.92-.22,1.86-.14,2.79-.23,.85-.08,1.81,.26,2.59-.21,.45,0,.9,0,1.35,0h.02c.82,0,1.64-.01,2.46-.04,.92-.03,1.83-.09,2.75-.18,2.71,.38,5.42,.14,8.13,.14,.21-.04,.41-.07,.62-.09,.21-.02,.41-.03,.62-.02,.41,.01,.82,.07,1.22,.21h0c.82,.06,1.69-.23,2.44,.42,3.69,.02,7.38,.04,11.07,.07,0,.37-.04,.68-.12,.93h.03c.42,.07,.84,.16,1.27,.1,2.27-.26,4.54-.31,6.81,.04,.29,.03,.57,.03,.86-.02,2.19-.55,4.46,.28,6.63-.53,.83-.45,1.72-.46,2.6-.36,4.39,.49,8.79,.38,13.19,.39,4.23,0,8.46,.04,12.69,.07,2.41,.14,4.82,.29,7.24,.43,1.15-.5,2.41,.35,3.54-.38,1-1.6-.11-1.42-.95-1.47-2.01,.11-4.04-.24-6.04,.21-.75,.88-1.55-.18-2.31,.07h0c-1.13-.33-2.35,.11-3.45-.52-7.8,.45-15.6-.16-23.4-.18-5.39-.02-10.78,.26-16.15-.37-4.88,.04-9.75,.12-14.62,.12-5.92,0-11.84-.08-17.76-.12-12.09,0-24.17,0-36.26,0-5.48-.02-10.95-.05-16.43-.07-1.82-.51-3.67-.13-5.51-.23-.23,.06-.46,.12-.69,.19-.12,.03-.24,.07-.36,.11-.72-.01-1.43-.03-2.15-.04-.16,0-.32,.01-.49,.02-2.2,.24-4.45-.48-6.61,.29-.23-.01-.45,.03-.63,.25-3.88-.16-7.78,.49-11.63-.5-1.92,.17-3.83,.34-5.75,.51-4.6,0-9.2-.05-13.8,.05-.53,.01-1.95-1.02-1.68,1.03,.48,.19,.96,.38,1.44,.57Zm174.8-.24c-.11,.09-.23,.18-.35,.27,.07-.17,.2-.24,.35-.27Zm-74.34-1.48s0-.06,.02-.09c0,.03,0,.06,0,.09h-.02s0,0,0,0Zm-10.74,.29s-.03,0-.04,.01c-.11-.04-.21-.07-.31-.14,.12,.06,.23,.1,.35,.13Zm-33.36-.09s.04,.01,.06,.02c-.06,.02-.11,.06-.17,.08,0-.06,.02-.11,.11-.11Zm-15.89,.56s0,0,0,.01c0,0-.01,0-.02,0,0,0,.01,0,.02-.01Z"/><path class="cls-2" d="M632.54,540.68c1.01,0,1.94-.19,2.92-1.52-2.41-.01-4.39-.56-6.32,.37,0,0,0,0,0,0-1.9,.48-3.92,.37-5.68,1.72,3.06,.36,6.04-1.03,9.09-.57Z"/><path class="cls-2" d="M614.18,544c1.52-.08,2.96-.42,4.2-1.6-2.21,.16-4.41,.32-6.62,.48l.03,.05c-1.94,0-3.88-.01-5.81-.02,0,.18,0,.36,0,.54h0c-.42,.37-.1,.73,.01,1.09,2.72-.44,5.51,.62,8.19-.54Z"/><path class="cls-2" d="M548.62,545.6c1.74-.41,3.43,.24,5.14,.06,.16-1.85-.84-1.88-1.95-1.56-.99,.29-1.95,.72-2.93-.01-.47-.03-.93-.05-1.4-.08-.47,1.33,.27,1.78,1.14,1.58Z"/><path class="cls-2" d="M492.29,544.78c.37,.23,.75,.15,1.07-.21,0-.19,0-.38,0-.58-.33-.35-.65-.7-.98-1.05-.69,.02-1.61-.15-1.6,.97,0,.94,1,.56,1.52,.86Z"/><path class="cls-2" d="M521.88,546.22c-.82,0-1.64,0-2.46,0,.82,.64,1.64,.62,2.46,0Z"/><path class="cls-2" d="M756.13,540.18c3,.69,6,.91,9,0h-9Z"/><path class="cls-2" d="M762.73,544.55c2.01,.01,4.01-.04,6.02-.06-.76-.7-1.67-.36-2.52-.48-1.38-.2-2.85,.43-4.15-.57-.16,0-.31,.01-.46,.05-.34,1.33,.55,1.05,1.11,1.05Z"/><path class="cls-2" d="M872.22,610.42h3.68c-.82-.56-1.25-.86-1.69-1.16-1.73-.95-3.42-.19-5.45-.1,1.14,1.59,2.3,1.44,3.46,1.27Z"/><path class="cls-2" d="M834.08,611.99c2.26,.05,4.52,.1,6.78,.15-.04,.28-.12,.48-.22,.65,.04,0,.08,0,.12,0,.48-.06,.88-.27,1.19-.71-.1-2.57-1.52-1.19-2.51-1.1-1.59,.91-2.82-1.29-4.38-.66,1.39,1.88-1.1,.76-.98,1.66Z"/><path class="cls-2" d="M848.78,630.86c1.2-.6,2.4,1,3.85-.32-2.31-1.11-2.44-1.1-3.85,.32Z"/><path class="cls-2" d="M861.7,611.75c-.21-.02-.43-.08-.65-.22-.12,.05-.24,.06-.36,.03-.59-.04-1.19-.15-1.62,.41,.06,.03,.11,.06,.17,.08,.71,2.69,2.89,1.54,4.38,2.02,.82,.26,1.88-.17,2.83,.14h0c.67-.45,1.27,.78,1.94,.1,2.06,.14,4.13,.27,6.19,.41,.04-.34,.07-.69,.11-1.03-.54-.77-1.22-.75-1.95-.44-1.54-.94-3.36-.27-4.91-1.1-2.02-.53-4.12,.17-6.13-.41Z"/><path class="cls-2" d="M859.17,616.94c.32,.37,.66,.42,1.02,.1,.81,0,1.61,0,2.42-.01,.97,.53,1.94-.19,2.91-.02,0-.16-.03-.32-.05-.48-2.1,.14-4.24-.58-6.29,.42Z"/><path class="cls-2" d="M562.88,680.1c-3.19,.05-6.39,.24-9.58,.26-6.46,.05-12.91,.01-19.37,.01,0-.2,0-.4,0-.59-.87,.14-1.74,.26-2.61,.41-.36,.06-.57,.39-.53,.77,.02,.22,.23,.54,.42,.6,1.51,.52,3.32-.46,4.62,1.18,3.5-2.46,7.29-.99,10.95-.97,5.31,.02,10.64-.38,15.95,.21,.59,.07,1.91,.13,1.91-1.1,0-1.15-1.1-.81-1.75-.79Z"/><path class="cls-2" d="M521.37,679.78c-2.54,1.23-5.08-.54-7.52-.09-5.18,.95-10.32-.27-15.51,.12-3.5,.27-7.19-.12-10.79-.29-.47-.37-1-.57-1.54-.71-.66-.18-1.12,.09-1.1,.94,.02,.91,.33,1.41,1.19,.88,5.51,1.28,11.08,.26,16.62,.59,2.92,.17,5.94-.75,8.78,.08,3.42,1,6.68-.09,10-.19,.33-.01,.62-.26,.54-.72-.07-.39-.36-.76-.67-.61Z"/><path class="cls-2" d="M482.75,668.99c-4.11-.92-8.3-.19-12.41-.78-1.33-.19-2.52-.33-3.57,.8v.55c.75,.2,1.5,.62,2.24,.58,4.14-.21,8.25,.17,12.34,.72,.84,.11,1.56-.07,2.34-.18,.16,0,.32,0,.48,0,.52-1.67-.55-1.48-1.42-1.67Z"/><path class="cls-2" d="M538.78,671.23c.97,.8,1.94-.36,2.9,0,1.31-.51,2.63-.34,3.96-.11,.66,.11,1.47,.09,1.5-.85,.03-.88-.8-.68-1.32-.7-2.23-.06-4.45-.06-6.68-.44-1.4-.23-3.03-.04-4.63,.9,1.44,1.27,3.12-.05,4.27,1.19Z"/><path class="cls-2" d="M480.95,679.54c-1.68-.05-3.37,.08-4.99-.57h-1.93c-.28,.55-.28,1.1,0,1.65,.16,0,.32,0,.48,0,1.85,1.3,3.92-.33,5.81,.54,.48,0,.96,0,1.44,0,1.22-1.49,.15-1.61-.8-1.64Z"/><path class="cls-2" d="M533.46,670.67c-.83-2.03-2.54-.76-3.78-1.3-.3-.13-.48,.39-.47,.77,.02,.65,.38,1,.91,1.03,.95,.05,1.9,.03,2.85,.04,.16-.18,.32-.36,.49-.54Z"/><path class="cls-2" d="M526.55,680.43c-1-.6-1.93-.51-2.79,.51,.92,.91,1.86,1.09,2.84,.38,.31-.22,.28-.69-.05-.89Z"/><path class="cls-2" d="M419.2,664.05c.52,.71,1.1,.51,1.64,.52,.33-.37,.65-.73,.98-1.1-.85,.18-1.86-.38-2.62,.58Z"/><path class="cls-2" d="M415.55,663.43c-.19,.5,.19,.56,.48,.55,.19,0,.38-.16,.67-.31-.25-.24-.4-.49-.57-.51-.19-.03-.52,.1-.58,.27Z"/><path class="cls-2" d="M413.43,663.6c-.06-.05-.26,.13-.39,.2,.11,.2,.22,.41,.33,.61,.2-.12,.33-.2,.46-.28-.13-.18-.24-.41-.4-.53Z"/><path class="cls-2" d="M430.04,666.25c.9,.61,1.9,.57,2.9,.54-.9-.62-1.77-1.51-2.9-.54Z"/><path class="cls-2" d="M770.29,646.89c.07,.65-.08,1.64,.82,1.45,.85-.18,.26-.93,.13-1.44-.32,0-.63,0-.95-.01Z"/><path class="cls-2" d="M762.27,647.18c-.55,.08-1.34,.12-1.56,.52-.54,.98,.56,1.29,.88,1.95h0c.81,0,1.45-.25,1.42-1.37-.01-.56-.06-1.2-.75-1.1Z"/><path class="cls-2" d="M749.51,646.9c.67,1.89,2.15,1.01,3.28,1.17,.42,.06,.22-.7,.08-1.11-1.12-.02-2.24-.04-3.36-.05Z"/><path class="cls-2" d="M580.88,545.12c1.12,.05,2.24,.02,3.36,.02,.93-.2,1.85-.38,2.78-.59,.36-.08,.89-.12,.68-.75-.17-.48-.68-.3-1.06-.32-1.82,1.03-3.78,.26-5.65,.55-.63,.1-1.74-.41-1.7,.73,.04,1.04,1.03,.34,1.6,.37Z"/><path class="cls-2" d="M561.98,545.11c.6-.28,1.19-.56,2.23-1.05-1.38,0-2.26,0-3.14,0-.59,1.36,.41,.92,.91,1.05Z"/><path class="cls-2" d="M567.89,544.64c-.7,.02-1.38-.91-2.2-.2,.76,.92,1.48,.75,2.2,.2Z"/><path class="cls-2" d="M602.58,544.57c.15-.36,.3-.73,.45-1.09-.64-.02-1.29-.05-1.93-.07-1.12,0-2.24,.02-3.36,.02-.8,.15-1.87-.25-2.19,1.32,1.32-.07,2.48-.13,3.64-.18,1.13,.41,2.26,.41,3.39,0Z"/><path class="cls-2" d="M500.47,544.71c.09,0,.35-.55,.3-.64-.77-1.19-1.89-.42-2.85-.62-.23-.05-.48-.02-.72-.03h0c.69,1.73,2.09,1.15,3.27,1.28Z"/><path class="cls-2" d="M507.49,544.28c-.46-.92-1.06-.75-1.58-.83h0c-.54,.96-1.66,.14-2.42,1.08,1.42-.07,2.69,.32,3.99-.25Z"/><path class="cls-2" d="M810.06,620.86c-.4,.39-.48,.98,.3,1.1,.18-.17,.36-.33,.54-.5-.11-.53-.23-1.21-.84-.6Z"/><path class="cls-2" d="M819.13,622.03c.46,.01,.92,.02,1.38,.04,.68,.56,1.35,.58,2.01-.03,.15-.01,.29-.03,.44-.04-1.88-1.82-4.17-.19-6.18-.96-.03,.32-.06,.65-.09,.97,.32,0,.64,.01,.95,.02,.49,.43,.99,.43,1.48,.01Z"/><path class="cls-2" d="M843.8,614.82c-1.13,1.39-2.83-.09-4.01,1.04,1.64,.02,3.28,.04,4.92,.06-.3-.37-.61-.73-.91-1.1Z"/><path class="cls-2" d="M851.97,621.44c-.31-.34-.63-.34-.95-.02-.98,0-1.96,0-2.94,0-.96-.35-1.92-.33-2.87,.03-.48,.42-1.15,.78-.38,1.59,.71-.47,1.49-.47,2.27-.43,1.33-.14,2.64,.04,3.97,.26,.91,.15,1.2-.44,.91-1.42Z"/><path class="cls-2" d="M835.52,628.62c.21-.54,.65-1.07,.02-1.62-1.2,.99-2.58,.34-3.87,.54-1.2,.19-1.34,.7-.46,1.63,.31,.35,.62,.35,.94,.02,.48,0,.96,0,1.45,0,.64-.19,1.28-.38,1.92-.57Z"/><path class="cls-2" d="M858.76,616.94c-.38-.83-.99-.64-1.65-.58-1.74,.17-3.48,.21-5.17-.47-.58-.25-1,.08-1.4,.5-.66,.03-1.32,.07-1.97,.1,.17,.18,.33,.35,.5,.53,2.06,.15,4.08,.86,6.17,.54,.41-.05,.76-.24,1.07-.54,.82,.22,1.64,.26,2.45-.09Z"/><path class="cls-2" d="M513.06,669.06c-.57-.11-1.22,.33-1.83,.51-3.57-.93-7.16-.43-10.76-.37-4.67,.08-9.34-1.18-14.03-.17-.39,.08-.89,0-.98,.54-.11,.7,.41,1,.89,1.02,1.68,.08,3.37,.07,5.06,.1,3.7,0,7.41,0,11.11,0,.35-.43,.84-.67,1.29-.5,2.76,1.09,5.62-.28,8.38,.5,4.49-1.06,9.1,1.18,13.95-.49-.54-.33-.73-.53-.93-.55-4.05-.31-8.12,.23-12.16-.57Z"/><path class="cls-2" d="M431.5,664.57c-.54-.69-1.26-.52-1.95-.53,.38,1.45,1.33,.22,1.95,.53Z"/><path class="cls-2" d="M576.48,666.26c-.31,0-.63,0-.94,0h0s0,0,0,0c-1.46,0-2.92,0-4.37,0h0c-.81-.96-1.61-.41-2.42,0-1.01-.21-1.99-.86-3.06-.38-.56,.26-1.47,.37-1.34,1.27,.14,.94,.98,.67,1.61,.62,2.22-.15,4.44-.28,6.65-.42,.16,.37,.32,.74,.48,1.11,.32,.18,.65,.36,.97,.54,.38-.55,.93-.54,1.47-.56,.31,0,.63,0,.94,0,3.34-1.17,6.78-.23,10.16-.58h0c.32,0,.63,0,.95,.01,.95-1.09,2.45,.05,3.39-1.09-.65-.18-1.29-.37-1.94-.55-4.19,.19-8.38,.77-12.57,.02Z"/><path class="cls-2" d="M626.27,667.34c-.29,.1-.77,.37-.61,.58,.77,1.01,1.86,.63,2.77,.41,.51-.12-.14-.63-.24-.97-.64,0-1.28-.01-1.92-.02Z"/><path class="cls-2" d="M437.52,663.68c.03-.44-.16-.63-.41-.58-.19,.04-.35,.25-.53,.39,.14,.16,.28,.43,.43,.46,.17,.02,.37-.19,.5-.27Z"/><path class="cls-2" d="M734.05,650.19c-.78-.4-1.38,.03-1.96,.55,.69,0,1.42,.16,1.96-.55Z"/><path class="cls-2" d="M744.68,650.13c.31,.04,.62,.08,.94,.12,.81-.2,1.62-.41,2.43-.61-.74-.85-1.78-.57-2.66-.83-.9-.27-1.04,.46-.7,1.32Z"/><path class="cls-2" d="M635.44,659.06c-1.77,0-3.54-.01-5.31-.02-.19,.05-.38,.11-.57,.16h0s0,0,0,0c-2.87-.04-5.74-.08-8.6-.12-3.26,.34-6.46-.51-9.69-.62-.06-.1-.08-.19-.11-.28-.12,.1-.25,.18-.36,.3-.77,.23-1.53,.47-2.3,.7,5.87-.07,11.59,.92,17.35,.99,1.91,.02,3.82-.01,5.74-.02,3.05,0,6.11-.02,9.16-.03,.99-.01,1.97-.02,2.96-.03,1.27,.01,2.54,.02,3.81,.03h4.31c-1.7-1.36-3.51-.81-5.25-1.07-3.71,0-7.42,0-11.13,0Z"/><path class="cls-2" d="M654.83,654.73c-.79-.05-1.73,.14-1.03,1.56,.48,0,.96,.01,1.44,.02,.21-.66,.67-1.51-.42-1.58Z"/><path class="cls-2" d="M815.22,629.74c.39,.53,.92,.53,1.46,.53,1.24-.71,2.64,.18,3.87-.52,.64,0,1.28-.02,1.92-.02h0c1.42-.51,3.04,1,4.36-.55-.16-.73-.33-1.47-.49-2.2-.59,.02-1.44-.68-1.69,.29-.44,1.73-1.61,1-2.47,1.12-.68,.09-1.41-.2-2.11-.32-.16-.24-.33-.24-.49,0-.64,.2-1.29-1.57-1.93,0-.64,.18-1.29,.36-1.93,.55-.17,.37-.33,.74-.5,1.12Z"/><path class="cls-2" d="M343.05,656.27c-.1-.05-.2-.09-.3-.14-1.06,.38-1.9-.54-2.89-.6-.85-.09-1.52,.64-2.34,.71-1.33-.1-2.65,.23-3.97,.04-.11,.07-.23,.12-.35,.16-.11-.08-.22-.17-.33-.25-.65,.15-1.39,0-1.91,.65-.17,.16-.34,.33-.5,.5-.2,2.16,1.43,1.96,2.41,2.14,1.53,.27,3.11,.07,4.88,.07-.44-.47-.89-.72-.93-1.04-.1-.68,.49-.61,.82-.54,1.75,.36,3.43-.91,5.19-.24,.42,.16,1.03,.04,1.08-.61,.02-.25-.55-.55-.85-.83Z"/><path class="cls-2" d="M728.24,627.58c0-.38,0-.77,0-1.15-2.41-.03-4.82-.07-7.22-.1-.3,.06-.6,.11-.89,.17-.2,.14-.36,.34-.46,.59-.05,.27-.06,.54-.02,.8,.48,1.15,1.12,2.05,2.39,1.95,.98-1.17,2.23-1.48,3.59-1.5,.93,0,1.91,.17,2.63-.76Z"/><path class="cls-2" d="M767.4,623.64c-1.13-.84-2.27-.77-3.4-.02,1.13,0,2.27,.01,3.4,.02Z"/><path class="cls-2" d="M769.3,623.64c.81,0,1.62,0,2.43,.01,.01-.15,.04-.3,.07-.45-.85-.03-1.75-.36-2.49,.44Z"/><path class="cls-2" d="M829.76,622.57h0c.63,.01,1.26,.03,1.9,.04,.51-.2,1.16-.32,.51-1.18-1.35,0-2.7,.02-4.04,0-.7,0-1.09,.22-.81,1.12,.81,.75,1.63,.74,2.45,.01Z"/><path class="cls-2" d="M840,622.54c.57-.08,1.67,.53,1.31-1.08-.15,0-.31,0-.46-.02-1.84,.99-3.68,.19-5.53,.02-1.16-.11-2.09,.14-.72,1.62,.31,0,.62-.02,.93-.02,1.42-.97,2.98-.3,4.47-.52Z"/><path class="cls-2" d="M482.75,665.11c.15,.01,.29,.03,.44,.06h0c.01,.16,.03,.32,.05,.49,2.4,.02,4.81,.04,7.21,.06h0c1.3,.68,2.61,.76,3.92,.02h0c4.01,.19,8.02,.37,12.03,.56h0c4,.97,8.06,.31,12.08,.53,1.31-.04,2.62-.08,3.93-.11,.46,.01,.92,.03,1.38,.04,.83-.01,1.66-.02,2.49-.03h0s0,0,0,0c.13,0,.26,0,.39,0h0c1.35,.03,2.7,.05,4.05,.1,.68,.02,1.11-.18,.83-1.1-.07-.12-.15-.24-.22-.35-.88-.58-1.9-.66-2.84-1.03-2.53-.33-5.1-.96-7.6-.4-2.03,.45-3.93,.47-5.89-.11-1.59-.1-3.2,.06-4.79-.25-.53,.1-.97,.3-1,.98-2.1-1.24-4.33-.38-6.49-.45-.33,.21-.66,.39-.98,.5-.39,0-.78,0-1.17,0-.27-.12-.53-.32-.79-.67-1.51-.97-3.08-.79-4.66-.28-.13,.14-.28,.24-.42,.33-3.5-.17-7-.35-10.51-.52-.86,.13-2.01-.06-1.43,1.68Zm33.53,.71s-.01,0-.02,0c0-.04,0-.08-.04-.14-.17-.28,.24-.11,.06,.15Z"/><path class="cls-2" d="M557.94,659.53c-2.59-.27-4.83-.4-7.08,.05h-7.82c.01,.37,.02,.74,.03,1.11h12.12c.7-.62,1.84,.2,2.75-1.16Z"/><path class="cls-2" d="M608.87,667.34h-10.09c1.07,1.37,1.91,1.42,2.8,1.2,3.4-.84,6.8,.21,10.2-.07,.14-.37,.29-.73,.43-1.1-.15,0-.3,0-.45-.03-.96,0-1.93,0-2.89,0Z"/><polygon class="cls-2" points="561.5 660.16 561.5 660.16 561.5 660.16 561.5 660.16"/><path class="cls-2" d="M599.67,658.53c-.13-.19-.29-.21-.46-.07-1.91,.26-3.91-.31-5.77,.35,.02,.28,.04,.56,.07,.84h4.75c.96-.02,1.91-.04,2.87-.05-.48-.35-.97-.71-1.45-1.06Z"/><path class="cls-2" d="M534.93,660.7h0s0,0,0,0h-.01Z"/><path class="cls-2" d="M541.27,659.99c-2.11,.17-4.36-1.53-6.33,.71,2.12-.12,4.28,.4,6.33-.71Z"/><path class="cls-2" d="M567.33,659.62s-.04-.04-.04-.04c-1.96-.26-3.93-.69-5.78,.57,2.89,.87,5.79,.95,8.67-.03,0-.17,0-.34,0-.51-.95-.82-1.91,.09-2.86,0Z"/><path class="cls-2" d="M620.95,667.34v-.54c-.65,.19-1.3,.37-1.95,.56,.65,.78,1.3,.32,1.95-.02Z"/><path class="cls-2" d="M603.71,659.43c.72,.26,1.39,.26,2.04-.2-.66,.08-1.38-.62-2.04,.2Z"/><path class="cls-2" d="M654.34,659.91c.63,.34,1.19,.33,1.81-.08-.64-.25-1.21-.39-1.81,.08Z"/><path class="cls-2" d="M628.71,653.54c-1.48,0-2.96,.02-4.45,.02,.03,.17,.05,.34,.06,.51,1.45-.27,3.01,.6,4.38-.54Z"/><path class="cls-2" d="M645.58,655.68c-.14,.04-.29,.06-.44,.07,1.02,.91,2.1,.55,3.18-.07h-2.74Z"/><path class="cls-2" d="M701.82,639.05c-.98-.2-1.97-.37-2.87,.33-.06,.11-.12,.21-.18,.32-.21,1.33-1.16,1.02-1.92,1.11,.02,.33,.04,.67,.07,1,3.35,.46,6.65-.51,9.98-.51-1.52-.9-3.39-.8-4.75-2.16-.11-.03-.21-.06-.32-.09Z"/><path class="cls-2" d="M710.25,639.61c-.43-.36-.88,.34-1.03,.85-.17,.56,.21,.84,.66,.85,2.24,.01,4.51,.31,6.68-.53-2.07-1.1-4.33,.49-6.3-1.16Z"/><path class="cls-2" d="M713.55,628.02c.52-.35,.85-.8,.62-1.54-.15-.04-.29-.09-.44-.14-.76-.49-1.68,.14-2.42-.45h0c-1.26,.2-2.52,.4-3.78,.59,.16,.33,.33,.65,.49,.98,.59,.57,1.23,.38,1.86,.13,.16,0,.32,.02,.49,.03,1.07,.08,2.07,.83,3.19,.4Z"/><path class="cls-2" d="M787.75,623.36c-.38,1.15,.47,.71,.89,.82h0c.22-.58,.45-1.27-.16-1.61-.41-.23-.62,.45-.74,.79Z"/><path class="cls-2" d="M510.25,660.74c-1.93-.04-3.88,.22-5.76-.56-3.88,0-7.76,0-11.64-.01h0c-.31-.03-.62-.05-.93-.08-.55,.27-1.24,.57-.22,1.15,.94,.53,1.98,.61,3.02,.6,3.57-.02,7.14,0,10.71,0h0c1.04,.95,2.26,.36,3.39,.54,.04,0,.07,0,.11,0,.44,.05,.88,.07,1.33,.04,.28,0,.55-.03,.81-.13,.12-.03,.24-.05,.36-.09,.09-.12,.18-.25,.28-.37,0,0,0,0,.01-.01h0s0,0,0,0c-.49-.36-.97-.71-1.46-1.07Z"/><path class="cls-2" d="M481.79,660.68c.15,.19,.3,.37,.45,.56h7.89c-1.11-1.35-1.87-1-2.55-1.12-1.92,.33-3.92-.51-5.78,.55Z"/><path class="cls-2" d="M464.33,663.46c-.16,.18-.32,.36-.48,.54,1.78,0,3.56-.01,5.34-.02-1.61-.3-3.12-1.74-4.86-.52Z"/><path class="cls-2" d="M581.81,659.59h4.41c-.88-.65-1.2-.88-1.51-1.11-.9,.59-2.48-1.15-2.9,1.11Z"/><path class="cls-2" d="M615.1,653.55c1.63,1.03,3.26,.4,4.88-.03-1.63-.76-3.25,.37-4.88,.03Z"/><path class="cls-2" d="M623.85,653.54c-.98-1.16-1.96-.06-2.94,0,.98,.87,1.96,.49,2.94,0Z"/><path class="cls-2" d="M603.03,653.54c.99,.77,1.99,.7,2.99,.01-1,0-1.99-.01-2.99-.01Z"/><path class="cls-2" d="M614.21,653.54c-.83,.06-1.71-.27-2.42,.5,.83-.04,1.71,.24,2.42-.5Z"/><path class="cls-2" d="M683.59,631.7c-.88,.14-1.77,.37-2.65,.73l-.1,.15c4.2,.81,8.4,.91,12.6,0-.81-.05-1.62-.1-2.44-.15-1.93-.58-3.86-.93-5.8-.88-.54-.26-1.08-.19-1.62,.14Z"/><path class="cls-2" d="M736.59,634.04c.62,.06,1.24,.11,1.85,.17,.14,.01,.29,0,.43-.05-.69-1.44-1.5-.41-2.28-.12Z"/><path class="cls-2" d="M707.95,631.42c1.13-.02,2.26-.04,3.4-.07-.01-.17-.02-.34-.03-.51-1.13,.15-2.35-.45-3.37,.57Z"/><path class="cls-2" d="M728.75,631.97c-.49,0-.97,0-1.46,0-.33,.18-.66,.37-1,.55,1,.88,1.8,.58,2.45-.56Z"/><path class="cls-2" d="M723.39,631.97c.87,.87,1.94,.38,2.9,.56-.73-1.8-1.94-.33-2.9-.56Z"/><path class="cls-2" d="M476.91,662.95c-.48-.01-.96-.03-1.44-.04-.1,.43-.29,.92,.3,1.05,.66,.14,1.05-.25,1.14-1Z"/><path class="cls-2" d="M458.68,659.02c-2.39-1.11-4.81-1.65-7.32-.77,2.36,1.59,4.87,.68,7.32,.77Z"/><path class="cls-2" d="M573.56,653.56c-1.28-.03-2.57-.06-3.85-.09,1.25,1.96,2.54,1.42,3.85,.09Z"/><path class="cls-2" d="M670.73,641.36c-.24,.47-1.03,1.11,.25,1.11,1.69,0,3.37-.03,5.06-.04,.29-.33,.58-.66,.87-.99-1.92-.05-3.83-.1-5.75-.15-.14,.02-.28,.04-.42,.07Z"/><path class="cls-2" d="M720.52,631.93c.17,0,.35,0,.52,0-.68-.18-1.37-.24-2.07-.24,.52,.08,1.04,.14,1.55,.24Z"/><path class="cls-2" d="M820.76,633.07c2.35,.18,4.76-.59,7.06,.53,.48,0,.96,.01,1.44,.02,.66,.86,1.3,.31,1.95-.03,.79,0,1.57-.01,2.36-.02h0c-3.41-.65-6.82-1.46-10.31-1.06-2.21,.25-4.41,.3-6.55-.55-.29,.27-.58,.54-1.17,1.09,1.95,0,3.59-.1,5.22,.02Z"/><path class="cls-2" d="M781.41,646.89c-.46,.31-.97,.52-1.44,.81,1.99,.89,3.81,.41,5.54-.88-1.36-.55-2.73-.43-4.09,.08Z"/></g><g><path d="M239.71,531.41v-55.24h-20.14v-19.8h62.9v19.8h-20.03v55.24h-22.73Z"/><path d="M340.18,531.41v-28.69h-26.89v28.69h-22.73v-75.05h22.73v26.55h26.89v-26.55h22.73v75.05h-22.73Z"/><path d="M375.07,531.41v-75.05h56.93v19.8h-34.2v7.43h33.42v19.8h-33.42v8.21h34.2v19.8h-56.93Z"/><path d="M466.77,493.94c0-23.18,17.78-38.82,41.29-38.82,19.69,0,29.59,11.48,34.09,21.83l-19.58,9.11c-1.91-5.85-7.76-10.91-14.51-10.91-10.91,0-18.23,8.33-18.23,18.79s7.31,18.79,18.23,18.79c6.75,0,12.6-5.06,14.51-10.91l19.58,9c-4.39,10.01-14.4,21.94-34.09,21.94-23.52,0-41.29-15.75-41.29-38.82Z"/><path d="M545.19,493.94c0-23.07,17.89-38.82,41.07-38.82s41.07,15.75,41.07,38.82-17.89,38.82-41.07,38.82-41.07-15.75-41.07-38.82Zm59.07,0c0-10.46-7.09-18.79-18-18.79s-18,8.33-18,18.79,7.09,18.79,18,18.79,18-8.33,18-18.79Z"/><path d="M682.12,531.41l-2.7-8.78h-27l-2.7,8.78h-25.77l27.68-75.05h28.58l27.68,75.05h-25.77Zm-16.2-52.77l-7.43,24.19h14.85l-7.43-24.19Z"/><path d="M704.52,493.94c0-23.18,17.78-38.82,41.29-38.82,19.69,0,29.59,11.48,34.09,21.83l-19.58,9.11c-1.91-5.85-7.76-10.91-14.51-10.91-10.91,0-18.23,8.33-18.23,18.79s7.31,18.79,18.23,18.79c6.75,0,12.6-5.06,14.51-10.91l19.58,9c-4.39,10.01-14.4,21.94-34.09,21.94-23.52,0-41.29-15.75-41.29-38.82Z"/><path d="M836.61,531.41v-28.69h-26.89v28.69h-22.73v-75.05h22.73v26.55h26.89v-26.55h22.73v75.05h-22.73Z"/></g><g><path class="cls-1" d="M217.5,591.08c0-20.18,15.48-33.8,35.96-33.8,17.15,0,25.77,9.99,29.69,19.01l-17.05,7.94c-1.67-5.09-6.76-9.5-12.64-9.5-9.5,0-15.87,7.25-15.87,16.36s6.37,16.36,15.87,16.36c5.88,0,10.97-4.41,12.64-9.5l17.05,7.84c-3.82,8.72-12.54,19.11-29.69,19.11-20.48,0-35.96-13.72-35.96-33.8Z"/><path class="cls-1" d="M285.79,591.08c0-20.09,15.58-33.8,35.76-33.8s35.76,13.72,35.76,33.8-15.58,33.8-35.76,33.8-35.76-13.72-35.76-33.8Zm51.44,0c0-9.11-6.17-16.36-15.68-16.36s-15.68,7.25-15.68,16.36,6.17,16.36,15.68,16.36,15.68-7.25,15.68-16.36Z"/><path class="cls-1" d="M408.26,623.7l-24.1-33.12v33.12h-19.79v-65.35h20.38l22.73,30.96v-30.96h19.79v65.35h-19.01Z"/><path class="cls-1" d="M432.86,614.49l10.29-14.7c4.9,4.7,12.25,8.43,21.07,8.43,3.72,0,7.25-.98,7.25-3.53,0-6.27-36.45,.1-36.45-25.67,0-11.07,9.21-21.65,27.14-21.65,10.68,0,20.28,3.04,27.73,9.11l-10.58,14.01c-5.68-4.31-13.03-6.47-19.2-6.47-3.92,0-5,1.27-5,2.94,0,6.17,36.35,.88,36.35,25.18,0,14.4-10.68,22.73-28.22,22.73-13.91,0-23.42-4.11-30.37-10.39Z"/><path class="cls-1" d="M497.92,596.86v-38.5h20.09v37.82c0,6.27,4.11,11.27,12.25,11.27s12.15-5,12.15-11.27v-37.82h20.08v38.41c0,16.26-10.19,28.12-32.23,28.12s-32.33-11.85-32.33-28.02Z"/><path class="cls-1" d="M573.07,623.7v-65.35h19.79v48.11h24.79v17.24h-44.58Z"/><path class="cls-1" d="M629.8,623.7v-48.11h-17.54v-17.24h54.77v17.24h-17.44v48.11h-19.79Z"/><path class="cls-1" d="M711.81,623.7l-2.35-7.64h-23.51l-2.35,7.64h-22.44l24.1-65.35h24.89l24.1,65.35h-22.44Zm-14.11-45.95l-6.47,21.07h12.93l-6.47-21.07Z"/><path class="cls-1" d="M781.67,623.7l-24.1-33.12v33.12h-19.79v-65.35h20.38l22.73,30.96v-30.96h19.79v65.35h-19.01Z"/><path class="cls-1" d="M825.27,623.7v-48.11h-17.54v-17.24h54.77v17.24h-17.44v48.11h-19.79Z"/></g></svg>